<svg xmlns="http://www.w3.org/2000/svg" xmlns:xlink="http://www.w3.org/1999/xlink" width="500" zoomAndPan="magnify" viewBox="0 0 375 374.999991" height="500" preserveAspectRatio="xMidYMid meet" version="1.0"><defs><clipPath id="b34a3f97f0"><path d="M 37.5 37.5 L 337.5 37.5 L 337.5 337.5 L 37.5 337.5 Z M 37.5 37.5 " clip-rule="nonzero"/></clipPath><clipPath id="e3bf56b030"><path d="M 116 241 L 308 241 L 308 284.953125 L 116 284.953125 Z M 116 241 " clip-rule="nonzero"/></clipPath><clipPath id="e7db7bff7f"><path d="M 54.152344 216 L 321 216 L 321 272 L 54.152344 272 Z M 54.152344 216 " clip-rule="nonzero"/></clipPath><clipPath id="24370edee8"><path d="M 55 201.703125 L 172 201.703125 L 172 252 L 55 252 Z M 55 201.703125 " clip-rule="nonzero"/></clipPath><clipPath id="db170a615d"><path d="M 126.792969 172 L 225 172 L 225 239.710938 L 126.792969 239.710938 Z M 126.792969 172 " clip-rule="nonzero"/></clipPath></defs><rect x="-37.5" width="450" fill="#ffffff" y="-37.499999" height="449.999989" fill-opacity="1"/><rect x="-37.5" width="450" fill="#ffffff" y="-37.499999" height="449.999989" fill-opacity="1"/><g clip-path="url(#b34a3f97f0)"><path fill="#000000" d="M 189.53125 337.039062 C 209.113281 336.753906 228.550781 332.621094 246.425781 324.933594 C 264.296875 317.242188 280.675781 306.132812 294.277344 292.320312 C 307.878906 278.503906 318.84375 262.054688 326.179688 244.183594 C 333.582031 226.308594 337.359375 206.941406 337.359375 187.570312 C 337.359375 206.941406 333.511719 226.308594 326.105469 244.183594 C 318.699219 262.054688 307.59375 278.433594 293.847656 291.960938 C 280.105469 305.5625 263.65625 316.316406 245.785156 323.507812 C 227.910156 330.699219 208.613281 334.1875 189.457031 333.902344 C 170.304688 333.621094 151.289062 329.488281 133.773438 321.941406 C 116.328125 314.394531 100.375 303.355469 87.203125 289.824219 C 73.957031 276.296875 63.417969 260.203125 56.371094 242.6875 C 49.25 225.242188 45.617188 206.371094 45.617188 187.570312 C 45.617188 168.699219 49.25 149.902344 56.371094 132.457031 C 63.492188 115.011719 74.03125 98.917969 87.203125 85.386719 C 100.449219 71.859375 116.328125 60.820312 133.773438 53.273438 C 151.363281 45.582031 170.375 41.523438 189.53125 41.238281 C 208.683594 40.953125 227.980469 44.441406 245.855469 51.636719 C 263.726562 58.753906 280.175781 69.578125 293.992188 83.179688 C 307.734375 96.78125 318.773438 113.085938 326.25 130.960938 C 333.726562 148.832031 337.5 168.203125 337.5 187.570312 C 337.5 168.203125 333.726562 148.832031 326.320312 130.960938 C 318.914062 113.015625 308.019531 96.636719 294.417969 82.824219 C 280.816406 69.007812 264.441406 57.828125 246.566406 50.210938 C 228.550781 42.378906 209.113281 38.320312 189.53125 37.960938 C 169.945312 37.679688 150.222656 41.167969 131.921875 48.5 C 113.621094 55.765625 96.675781 66.730469 82.503906 80.546875 C 68.332031 94.359375 56.941406 111.09375 49.179688 129.394531 C 41.488281 147.695312 37.5 167.632812 37.5 187.5 C 37.5 207.367188 41.488281 227.304688 49.25 245.605469 C 56.941406 263.90625 68.40625 280.640625 82.574219 294.453125 C 96.746094 308.269531 113.621094 319.234375 131.992188 326.5 C 150.222656 333.832031 169.945312 337.320312 189.53125 337.039062 Z M 189.53125 337.039062 " fill-opacity="1" fill-rule="nonzero"/></g><g clip-path="url(#e3bf56b030)"><path fill="#0097b2" d="M 307.761719 250.890625 C 302.996094 249.335938 297.386719 248.058594 291.164062 247.550781 C 289.023438 247.347656 286.804688 247.269531 284.535156 247.269531 C 274.976562 247.269531 264.496094 248.953125 253.355469 252.265625 C 249.402344 253.464844 246.089844 254.5625 242.976562 255.65625 C 239.789062 256.804688 236.449219 258.078125 232.371094 259.6875 C 224.976562 262.667969 217.355469 265.90625 210.902344 268.6875 L 210.113281 268.992188 C 203.332031 271.824219 196.320312 274.730469 189.539062 277.125 C 186.148438 278.375 182.65625 279.496094 179.1875 280.488281 C 175.414062 281.613281 172.152344 282.425781 169.117188 283.039062 C 162.894531 284.367188 156.777344 285.027344 150.9375 285.027344 C 144.742188 285.027344 138.878906 284.289062 133.472656 282.785156 C 126.765625 281.027344 120.878906 278.195312 116.085938 275.289062 C 120.828125 276.820312 126.410156 278.117188 132.578125 278.605469 C 134.722656 278.808594 136.941406 278.910156 139.207031 278.910156 C 148.769531 278.910156 159.25 277.199219 170.390625 273.886719 C 174.089844 272.765625 177.503906 271.644531 180.769531 270.496094 C 184.414062 269.167969 188.007812 267.765625 191.375 266.46875 C 198.769531 263.484375 206.339844 260.246094 212.839844 257.46875 L 214.015625 256.957031 C 220.667969 254.203125 227.554688 251.347656 234.183594 249.003906 C 237.777344 247.703125 241.269531 246.554688 244.558594 245.613281 C 248.484375 244.464844 251.699219 243.675781 254.628906 243.0625 C 260.851562 241.738281 266.96875 241.074219 272.808594 241.074219 C 279.003906 241.074219 284.867188 241.839844 290.273438 243.316406 C 297.03125 245.101562 302.945312 247.957031 307.761719 250.890625 " fill-opacity="1" fill-rule="nonzero"/></g><g clip-path="url(#e7db7bff7f)"><path fill="#5ce1e6" d="M 320.433594 246.976562 C 320.207031 246.847656 319.339844 246.238281 317.808594 245.371094 C 316.074219 244.300781 313.5 242.871094 310.261719 241.316406 C 303.734375 238.207031 294.429688 234.890625 283.238281 234.023438 C 272.070312 233.054688 259.042969 234.636719 245.070312 238.664062 C 241.574219 239.683594 238.03125 240.78125 234.4375 242.003906 C 230.84375 243.253906 227.195312 244.605469 223.527344 246.007812 C 216.207031 248.835938 208.761719 251.898438 201.292969 254.980469 C 193.847656 257.964844 186.402344 260.972656 179.058594 263.472656 C 175.414062 264.746094 171.769531 265.894531 168.171875 266.886719 C 164.578125 267.910156 161.035156 268.800781 157.539062 269.464844 C 154.152344 270.152344 150.808594 270.6875 147.546875 271.019531 C 147.546875 271.019531 147.496094 271.019531 147.417969 271.042969 C 147.242188 271.070312 146.882812 271.09375 146.398438 271.144531 C 146.09375 271.171875 145.8125 271.199219 145.507812 271.222656 C 145.023438 271.273438 144.4375 271.296875 143.800781 271.324219 C 143.339844 271.351562 142.855469 271.375 142.320312 271.375 C 141.863281 271.402344 141.351562 271.402344 140.839844 271.402344 C 139.746094 271.425781 138.523438 271.425781 137.21875 271.375 C 136.914062 271.375 136.609375 271.351562 136.304688 271.351562 C 135.792969 271.324219 135.28125 271.296875 134.746094 271.273438 C 134.289062 271.25 133.804688 271.222656 133.34375 271.199219 C 132.554688 271.121094 131.765625 271.070312 130.925781 270.96875 C 128.910156 270.789062 126.765625 270.507812 124.5 270.101562 C 122.945312 269.847656 121.335938 269.539062 119.679688 269.15625 C 118.53125 268.902344 117.359375 268.621094 116.160156 268.289062 C 116.109375 268.289062 116.085938 268.289062 116.058594 268.265625 C 96.375 263.039062 71.617188 249.625 54.5625 216.253906 C 56.167969 218.726562 81.078125 256.078125 122.304688 260.183594 C 132.808594 260.695312 144.792969 259.0625 157.539062 255.390625 C 158.027344 255.238281 158.511719 255.109375 158.996094 254.957031 C 162.003906 254.0625 165.089844 253.09375 168.171875 252.023438 C 171.769531 250.773438 175.414062 249.421875 179.058594 248.046875 C 186.402344 245.191406 193.847656 242.132812 201.292969 239.046875 C 208.761719 236.0625 216.207031 233.027344 223.527344 230.554688 C 227.195312 229.257812 230.84375 228.109375 234.4375 227.113281 C 238.03125 226.09375 241.574219 225.203125 245.070312 224.515625 C 259.042969 221.660156 272.070312 221.835938 283.238281 224.792969 C 294.429688 227.648438 303.734375 233.183594 310.261719 238.101562 C 313.5 240.550781 316.074219 242.871094 317.808594 244.453125 C 319.339844 245.855469 320.207031 246.746094 320.433594 246.976562 " fill-opacity="1" fill-rule="nonzero"/></g><g clip-path="url(#24370edee8)"><path fill="#0097b2" d="M 55.796875 201.707031 C 55.796875 201.707031 56.113281 202.132812 56.695312 202.929688 C 57.277344 203.730469 58.144531 204.90625 59.273438 206.347656 C 61.503906 209.246094 64.835938 213.296875 69.210938 217.730469 C 71.367188 219.976562 73.890625 222.214844 76.539062 224.570312 C 79.257812 226.855469 82.21875 229.132812 85.363281 231.363281 C 88.53125 233.5625 91.949219 235.597656 95.476562 237.550781 C 99.066406 239.492188 102.675781 241.121094 106.621094 242.589844 C 110.316406 243.980469 114.300781 245.046875 118.210938 245.816406 C 122.148438 246.519531 126.074219 246.992188 129.910156 247.175781 C 133.746094 247.273438 137.476562 247.269531 141.023438 247.019531 C 144.5625 246.761719 147.917969 246.40625 151.011719 245.972656 C 157.195312 245.074219 162.351562 244.0625 165.953125 243.3125 C 169.570312 242.570312 171.636719 242.144531 171.636719 242.144531 C 171.636719 242.144531 171.148438 242.34375 170.230469 242.714844 C 169.304688 243.070312 167.980469 243.660156 166.238281 244.289062 C 162.773438 245.589844 157.769531 247.332031 151.5625 248.847656 C 148.464844 249.613281 145.0625 250.316406 141.410156 250.804688 C 137.765625 251.324219 133.871094 251.640625 129.820312 251.664062 C 125.773438 251.605469 121.5625 251.414062 117.34375 250.664062 C 113.121094 249.886719 108.933594 248.855469 104.734375 247.324219 C 100.816406 245.804688 96.765625 243.917969 93.101562 241.859375 C 89.394531 239.78125 85.953125 237.390625 82.726562 234.980469 C 76.320312 230.066406 71.027344 224.679688 67.035156 219.671875 C 62.988281 214.699219 60.210938 210.148438 58.421875 206.894531 C 57.488281 205.28125 56.902344 203.957031 56.460938 203.070312 C 56.027344 202.179688 55.796875 201.707031 55.796875 201.707031 " fill-opacity="1" fill-rule="nonzero"/></g><path fill="#5ce1e6" d="M 142.320312 271.375 C 141.554688 271.402344 140.6875 271.425781 139.769531 271.425781 L 139.515625 271.425781 C 138.800781 271.425781 138.035156 271.402344 137.21875 271.375 C 138.523438 271.425781 139.746094 271.425781 140.839844 271.402344 C 141.351562 271.402344 141.863281 271.402344 142.320312 271.375 " fill-opacity="1" fill-rule="nonzero"/><path fill="#5ce1e6" d="M 140.839844 271.402344 C 140.484375 271.402344 140.128906 271.425781 139.769531 271.425781 L 139.515625 271.425781 C 132.351562 271.578125 125.542969 270.839844 119.347656 269.207031 C 118.277344 268.929688 117.207031 268.621094 116.160156 268.289062 C 117.359375 268.621094 118.53125 268.902344 119.679688 269.15625 C 121.335938 269.539062 122.945312 269.847656 124.5 270.101562 C 126.765625 270.507812 128.910156 270.789062 130.925781 270.96875 C 131.738281 271.070312 132.554688 271.121094 133.34375 271.199219 C 133.804688 271.222656 134.289062 271.25 134.746094 271.273438 C 135.28125 271.296875 135.792969 271.324219 136.304688 271.351562 C 136.609375 271.351562 136.914062 271.375 137.21875 271.375 C 138.523438 271.425781 139.746094 271.425781 140.839844 271.402344 " fill-opacity="1" fill-rule="nonzero"/><path fill="#000000" d="M 190.511719 126.636719 L 127.902344 181.996094 L 181.683594 143.34375 Z M 190.511719 126.636719 " fill-opacity="1" fill-rule="nonzero"/><g clip-path="url(#db170a615d)"><path fill="#000000" d="M 208.808594 175.671875 L 126.78125 239.675781 L 224.1875 172.949219 Z M 208.808594 175.671875 " fill-opacity="1" fill-rule="nonzero"/></g><path fill="#000000" d="M 182.039062 150.699219 L 145.273438 181.621094 L 183.449219 155.785156 Z M 182.039062 150.699219 " fill-opacity="1" fill-rule="nonzero"/><path fill="#000000" d="M 199.480469 174.488281 L 150.433594 208.945312 L 195.472656 171.117188 Z M 199.480469 174.488281 " fill-opacity="1" fill-rule="nonzero"/><path fill="#000000" d="M 189.757812 168.125 L 128.191406 209.703125 L 185.84375 161.765625 Z M 189.757812 168.125 " fill-opacity="1" fill-rule="nonzero"/><path fill="#ffffff" d="M 245.558594 144.058594 C 245.558594 125.445312 230.46875 110.355469 211.851562 110.355469 C 193.238281 110.355469 178.148438 125.445312 178.148438 144.058594 C 178.148438 162.675781 193.238281 177.765625 211.851562 177.765625 C 230.46875 177.765625 245.558594 162.675781 245.558594 144.058594 " fill-opacity="1" fill-rule="nonzero"/><path fill="#000000" d="M 230.589844 171.046875 C 227.925781 172.34375 226.300781 172.65625 225.359375 172.65625 C 226.472656 171.265625 228.792969 168.300781 229.890625 166.414062 C 231.105469 165.671875 238.304688 161.082031 241.707031 154.433594 L 243.011719 154.484375 C 240.761719 161.179688 236.390625 167.007812 230.589844 171.046875 Z M 210.699219 176.898438 C 211.671875 176.578125 212.640625 176.148438 213.527344 175.5625 C 215.859375 175.269531 221.140625 174.554688 223.765625 173.769531 C 224.105469 173.929688 224.578125 174.058594 225.238281 174.070312 C 222.554688 175.265625 219.667969 176.121094 216.617188 176.566406 C 214.625 176.859375 212.644531 176.964844 210.699219 176.898438 Z M 189.675781 168.269531 C 189.207031 166.964844 188.746094 165.136719 188.40625 163.546875 C 189.839844 163.546875 192.953125 163.410156 195.347656 162.402344 C 195.347656 162.402344 193.828125 152.988281 193.820312 150.011719 C 195.597656 149.027344 201.96875 145.476562 205.878906 143.132812 C 208.136719 144.703125 216.164062 147.707031 218.730469 148.164062 C 218.921875 150.300781 219.585938 157.566406 219.96875 162.152344 C 219.007812 163.140625 216.105469 165.722656 209.964844 168.34375 C 205.132812 167.734375 195.035156 161.191406 194.9375 161.132812 L 195.347656 162.402344 L 194.449219 162.589844 C 194.835938 162.832031 203.871094 168.589844 209.125 169.621094 C 209.769531 170.933594 211.085938 173.582031 211.851562 174.917969 C 209.746094 175.976562 207.269531 176.261719 205.65625 176.324219 C 199.636719 175.160156 194.113281 172.332031 189.675781 168.269531 Z M 181.058594 151.671875 C 181.585938 153.574219 183.457031 159.597656 186.835938 162.855469 C 186.980469 163.585938 187.242188 164.855469 187.585938 166.1875 C 183.675781 161.90625 180.855469 156.554688 179.644531 150.523438 C 180.15625 151.03125 180.652344 151.40625 181.058594 151.671875 Z M 216.660156 111.558594 C 216.625 111.683594 216.589844 111.808594 216.558594 111.9375 C 209.464844 111.378906 201.359375 113.796875 200.988281 113.910156 L 201 113.9375 L 199.039062 113.804688 C 201.5625 112.738281 204.261719 111.964844 207.101562 111.550781 C 210.351562 111.074219 213.5625 111.097656 216.660156 111.558594 Z M 243.53125 135.796875 C 242.097656 131.144531 239.972656 127.210938 238.246094 124.492188 C 240.734375 127.835938 242.613281 131.691406 243.691406 135.914062 C 243.632812 135.875 243.585938 135.835938 243.53125 135.796875 Z M 240.03125 141.171875 C 236.671875 139.90625 231.167969 138.578125 229.046875 138.082031 C 228.191406 136.484375 223.785156 128.246094 222.214844 125.9375 C 223.566406 123.597656 225.375 120.015625 226.277344 118.203125 C 228.164062 118.835938 234.292969 121.363281 234.292969 121.363281 C 234.347656 121.425781 239.714844 127.835938 242.320312 136.609375 C 242.320312 136.609375 240.738281 140.15625 240.03125 141.171875 Z M 207.738281 127.078125 C 204.394531 124.199219 199.710938 121.570312 197.761719 120.527344 C 198.488281 119.03125 201.398438 115.25 201.398438 115.25 C 201.488281 115.21875 210.832031 112.429688 217.933594 113.5 C 220.105469 114.296875 223.589844 115.773438 225.082031 117.464844 C 223.84375 119.953125 222.167969 123.203125 221.019531 125.222656 C 218.460938 125.058594 210.308594 125.871094 207.738281 127.078125 Z M 181.140625 149.996094 C 180.519531 149.476562 179.800781 148.714844 179.203125 147.636719 C 178.378906 140.132812 180.171875 132.890625 183.882812 126.867188 L 185.363281 128.652344 C 184.714844 131.164062 183.464844 137.222656 184.339844 143.8125 C 183.453125 145.085938 181.808594 147.648438 181.140625 149.996094 Z M 205.296875 141.851562 C 201.378906 144.210938 194.773438 147.886719 193.082031 148.824219 C 191.402344 147.953125 187.570312 145.886719 185.824219 144.285156 C 184.71875 137.171875 186.335938 130.390625 186.875 128.429688 C 188.855469 126.671875 193.476562 122.792969 196.941406 121.675781 C 198.761719 122.648438 203.679688 125.386719 206.984375 128.277344 C 206.621094 130.882812 205.464844 139.296875 205.296875 141.851562 Z M 229.699219 164.875 C 228.058594 164.671875 224.214844 164.054688 221.394531 162.417969 C 220.984375 157.464844 220.210938 148.96875 220.082031 147.597656 C 221.917969 145.972656 226.832031 141.5625 228.570312 139.410156 C 231.441406 140.074219 237.050781 141.484375 239.96875 142.640625 C 241.148438 145.9375 241.210938 149.96875 241.113281 152.355469 C 238.59375 158.65625 231.863281 163.457031 229.699219 164.875 Z M 206.941406 110.453125 C 190.015625 112.929688 177.816406 127.566406 177.894531 144.203125 L 177.878906 144.207031 C 177.882812 144.246094 177.890625 144.28125 177.894531 144.320312 C 177.910156 145.859375 178.027344 147.414062 178.253906 148.980469 C 180.96875 167.511719 198.25 180.378906 216.78125 177.667969 C 235.3125 174.953125 248.179688 157.671875 245.46875 139.140625 C 242.753906 120.609375 225.46875 107.742188 206.941406 110.453125 " fill-opacity="1" fill-rule="nonzero"/></svg>