<svg xmlns="http://www.w3.org/2000/svg" xmlns:xlink="http://www.w3.org/1999/xlink" width="500" zoomAndPan="magnify" viewBox="0 0 375 374.999991" height="500" preserveAspectRatio="xMidYMid meet" version="1.0"><defs><g/><clipPath id="0354872b9a"><path d="M 37.5 37.5 L 337.5 37.5 L 337.5 337.5 L 37.5 337.5 Z M 37.5 37.5 " clip-rule="nonzero"/></clipPath><clipPath id="b6f6f9b00d"><path d="M 137 58.589844 L 272 58.589844 L 272 90 L 137 90 Z M 137 58.589844 " clip-rule="nonzero"/></clipPath><clipPath id="3a407feb19"><path d="M 94.175781 68 L 280.820312 68 L 280.820312 107 L 94.175781 107 Z M 94.175781 68 " clip-rule="nonzero"/></clipPath><clipPath id="97f2382852"><path d="M 95 82 L 177 82 L 177 117.089844 L 95 117.089844 Z M 95 82 " clip-rule="nonzero"/></clipPath><clipPath id="577add4e2d"><path d="M 140 290 L 275 290 L 275 321.84375 L 140 321.84375 Z M 140 290 " clip-rule="nonzero"/></clipPath><clipPath id="081c0cbc63"><path d="M 97.371094 273 L 284 273 L 284 313 L 97.371094 313 Z M 97.371094 273 " clip-rule="nonzero"/></clipPath><clipPath id="5390a4d537"><path d="M 98 263.34375 L 180 263.34375 L 180 299 L 98 299 Z M 98 263.34375 " clip-rule="nonzero"/></clipPath><clipPath id="cf8b189822"><path d="M 159.480469 216 L 189 216 L 189 243 L 159.480469 243 Z M 159.480469 216 " clip-rule="nonzero"/></clipPath><clipPath id="89da3baf26"><path d="M 159.480469 238 L 205 238 L 205 268.765625 L 159.480469 268.765625 Z M 159.480469 238 " clip-rule="nonzero"/></clipPath></defs><rect x="-37.5" width="450" fill="#ffffff" y="-37.499999" height="449.999989" fill-opacity="1"/><rect x="-37.5" width="450" fill="#ffffff" y="-37.499999" height="449.999989" fill-opacity="1"/><g clip-path="url(#0354872b9a)"><path fill="#000000" d="M 189.53125 337.039062 C 209.113281 336.753906 228.550781 332.621094 246.425781 324.933594 C 264.296875 317.242188 280.675781 306.132812 294.277344 292.320312 C 307.878906 278.503906 318.84375 262.054688 326.179688 244.183594 C 333.582031 226.308594 337.359375 206.941406 337.359375 187.570312 C 337.359375 206.941406 333.511719 226.308594 326.105469 244.183594 C 318.699219 262.054688 307.59375 278.433594 293.847656 291.960938 C 280.105469 305.5625 263.65625 316.316406 245.785156 323.507812 C 227.910156 330.699219 208.613281 334.1875 189.457031 333.902344 C 170.304688 333.621094 151.289062 329.488281 133.773438 321.941406 C 116.328125 314.394531 100.375 303.355469 87.203125 289.824219 C 73.957031 276.296875 63.417969 260.203125 56.371094 242.6875 C 49.25 225.242188 45.617188 206.371094 45.617188 187.570312 C 45.617188 168.699219 49.25 149.902344 56.371094 132.457031 C 63.492188 115.011719 74.03125 98.917969 87.203125 85.386719 C 100.449219 71.859375 116.328125 60.820312 133.773438 53.273438 C 151.363281 45.582031 170.375 41.523438 189.53125 41.238281 C 208.683594 40.953125 227.980469 44.441406 245.855469 51.636719 C 263.726562 58.753906 280.175781 69.578125 293.992188 83.179688 C 307.734375 96.78125 318.773438 113.085938 326.25 130.960938 C 333.726562 148.832031 337.5 168.203125 337.5 187.570312 C 337.5 168.203125 333.726562 148.832031 326.320312 130.960938 C 318.914062 113.015625 308.019531 96.636719 294.417969 82.824219 C 280.816406 69.007812 264.441406 57.828125 246.566406 50.210938 C 228.550781 42.378906 209.113281 38.320312 189.53125 37.960938 C 169.945312 37.679688 150.222656 41.167969 131.921875 48.5 C 113.621094 55.765625 96.675781 66.730469 82.503906 80.546875 C 68.332031 94.359375 56.941406 111.09375 49.179688 129.394531 C 41.488281 147.695312 37.5 167.632812 37.5 187.5 C 37.5 207.367188 41.488281 227.304688 49.25 245.605469 C 56.941406 263.90625 68.40625 280.640625 82.574219 294.453125 C 96.746094 308.269531 113.621094 319.234375 131.992188 326.5 C 150.222656 333.832031 169.945312 337.320312 189.53125 337.039062 Z M 189.53125 337.039062 " fill-opacity="1" fill-rule="nonzero"/></g><g fill="#000000" fill-opacity="1"><g transform="translate(68.26377, 190.069075)"><g><path d="M 7.40625 -30.5625 L 7.40625 -15.9375 L 24.765625 -15.9375 L 24.765625 -14.578125 L 7.40625 -14.578125 L 7.40625 0 L 5.84375 0 L 5.84375 -31.984375 L 26.8125 -31.984375 L 26.8125 -30.5625 Z M 7.40625 -30.5625 "/></g></g></g><g fill="#000000" fill-opacity="1"><g transform="translate(97.041939, 190.069075)"><g><path d="M 25.453125 -9.359375 L 6.3125 -9.359375 L 2.015625 0 L 0.3125 0 L 15.125 -31.984375 L 16.625 -31.984375 L 31.4375 0 L 29.75 0 Z M 24.859375 -10.6875 L 15.90625 -30.203125 L 6.90625 -10.6875 Z M 24.859375 -10.6875 "/></g></g></g><g fill="#000000" fill-opacity="1"><g transform="translate(128.834963, 190.069075)"><g><path d="M 31.390625 -31.984375 L 31.390625 0 L 30.109375 0 L 7.40625 -29.15625 L 7.40625 0 L 5.84375 0 L 5.84375 -31.984375 L 7.125 -31.984375 L 29.828125 -2.828125 L 29.828125 -31.984375 Z M 31.390625 -31.984375 "/></g></g></g><g fill="#000000" fill-opacity="1"><g transform="translate(166.063861, 190.069075)"><g><path d="M 11.921875 -30.5625 L 0.1875 -30.5625 L 0.1875 -31.984375 L 25.171875 -31.984375 L 25.171875 -30.5625 L 13.4375 -30.5625 L 13.4375 0 L 11.921875 0 Z M 11.921875 -30.5625 "/></g></g></g><g fill="#000000" fill-opacity="1"><g transform="translate(191.416059, 190.069075)"><g><path d="M 25.453125 -9.359375 L 6.3125 -9.359375 L 2.015625 0 L 0.3125 0 L 15.125 -31.984375 L 16.625 -31.984375 L 31.4375 0 L 29.75 0 Z M 24.859375 -10.6875 L 15.90625 -30.203125 L 6.90625 -10.6875 Z M 24.859375 -10.6875 "/></g></g></g><g fill="#000000" fill-opacity="1"><g transform="translate(223.209083, 190.069075)"><g><path d="M 13.9375 0.1875 C 11.625 0.1875 9.421875 -0.222656 7.328125 -1.046875 C 5.242188 -1.867188 3.640625 -2.9375 2.515625 -4.25 L 3.328125 -5.34375 C 4.398438 -4.125 5.882812 -3.125 7.78125 -2.34375 C 9.6875 -1.570312 11.722656 -1.1875 13.890625 -1.1875 C 17.085938 -1.1875 19.5 -1.816406 21.125 -3.078125 C 22.757812 -4.347656 23.578125 -5.972656 23.578125 -7.953125 C 23.578125 -9.472656 23.148438 -10.695312 22.296875 -11.625 C 21.441406 -12.550781 20.390625 -13.25 19.140625 -13.71875 C 17.890625 -14.195312 16.1875 -14.695312 14.03125 -15.21875 C 11.707031 -15.789062 9.84375 -16.351562 8.4375 -16.90625 C 7.039062 -17.457031 5.851562 -18.296875 4.875 -19.421875 C 3.90625 -20.546875 3.421875 -22.050781 3.421875 -23.9375 C 3.421875 -25.425781 3.816406 -26.796875 4.609375 -28.046875 C 5.398438 -29.296875 6.609375 -30.289062 8.234375 -31.03125 C 9.867188 -31.78125 11.90625 -32.15625 14.34375 -32.15625 C 16.082031 -32.15625 17.796875 -31.894531 19.484375 -31.375 C 21.171875 -30.863281 22.609375 -30.148438 23.796875 -29.234375 L 23.125 -28 C 21.875 -28.914062 20.476562 -29.609375 18.9375 -30.078125 C 17.394531 -30.554688 15.878906 -30.796875 14.390625 -30.796875 C 11.285156 -30.796875 8.929688 -30.144531 7.328125 -28.84375 C 5.734375 -27.550781 4.9375 -25.914062 4.9375 -23.9375 C 4.9375 -22.382812 5.367188 -21.144531 6.234375 -20.21875 C 7.097656 -19.289062 8.160156 -18.582031 9.421875 -18.09375 C 10.691406 -17.601562 12.394531 -17.097656 14.53125 -16.578125 C 16.84375 -16.003906 18.695312 -15.453125 20.09375 -14.921875 C 21.5 -14.390625 22.679688 -13.566406 23.640625 -12.453125 C 24.597656 -11.335938 25.078125 -9.851562 25.078125 -8 C 25.078125 -6.5 24.671875 -5.125 23.859375 -3.875 C 23.054688 -2.632812 21.816406 -1.644531 20.140625 -0.90625 C 18.472656 -0.175781 16.40625 0.1875 13.9375 0.1875 Z M 13.9375 0.1875 "/></g></g></g><g fill="#000000" fill-opacity="1"><g transform="translate(250.799574, 190.069075)"><g><path d="M 27.453125 -1.421875 L 27.453125 0 L 5.84375 0 L 5.84375 -31.984375 L 26.8125 -31.984375 L 26.8125 -30.5625 L 7.40625 -30.5625 L 7.40625 -16.953125 L 24.765625 -16.953125 L 24.765625 -15.53125 L 7.40625 -15.53125 L 7.40625 -1.421875 Z M 27.453125 -1.421875 "/></g></g></g><g fill="#000000" fill-opacity="1"><g transform="translate(281.31356, 190.069075)"><g><path d="M 25.453125 -9.359375 L 6.3125 -9.359375 L 2.015625 0 L 0.3125 0 L 15.125 -31.984375 L 16.625 -31.984375 L 31.4375 0 L 29.75 0 Z M 24.859375 -10.6875 L 15.90625 -30.203125 L 6.90625 -10.6875 Z M 24.859375 -10.6875 "/></g></g></g><g clip-path="url(#b6f6f9b00d)"><path fill="#0097b2" d="M 271.671875 82.660156 C 268.332031 83.75 264.40625 84.640625 260.054688 85 C 258.554688 85.140625 257.003906 85.195312 255.414062 85.195312 C 248.722656 85.195312 241.386719 84.015625 233.589844 81.699219 C 230.824219 80.859375 228.503906 80.089844 226.328125 79.324219 C 224.097656 78.519531 221.757812 77.628906 218.902344 76.503906 C 213.726562 74.417969 208.394531 72.152344 203.878906 70.207031 L 203.324219 69.992188 C 198.578125 68.011719 193.671875 65.976562 188.925781 64.300781 C 186.550781 63.425781 184.105469 62.640625 181.679688 61.945312 C 179.039062 61.160156 176.753906 60.585938 174.632812 60.160156 C 170.277344 59.230469 165.996094 58.765625 161.90625 58.765625 C 157.570312 58.765625 153.46875 59.285156 149.683594 60.335938 C 144.992188 61.570312 140.867188 63.550781 137.511719 65.582031 C 140.832031 64.511719 144.742188 63.601562 149.058594 63.265625 C 150.558594 63.121094 152.109375 63.050781 153.699219 63.050781 C 160.390625 63.050781 167.726562 64.246094 175.523438 66.566406 C 178.109375 67.351562 180.503906 68.136719 182.785156 68.9375 C 185.339844 69.867188 187.855469 70.847656 190.210938 71.757812 C 195.382812 73.847656 200.683594 76.113281 205.234375 78.058594 L 206.054688 78.414062 C 210.710938 80.339844 215.53125 82.339844 220.171875 83.980469 C 222.6875 84.890625 225.132812 85.695312 227.433594 86.355469 C 230.179688 87.15625 232.429688 87.710938 234.480469 88.140625 C 238.835938 89.066406 243.117188 89.53125 247.203125 89.53125 C 251.542969 89.53125 255.644531 88.996094 259.429688 87.960938 C 264.15625 86.710938 268.296875 84.714844 271.671875 82.660156 " fill-opacity="1" fill-rule="nonzero"/></g><g clip-path="url(#3a407feb19)"><path fill="#5ce1e6" d="M 280.539062 85.402344 C 280.378906 85.488281 279.773438 85.917969 278.699219 86.523438 C 277.488281 87.273438 275.6875 88.273438 273.417969 89.363281 C 268.851562 91.539062 262.335938 93.859375 254.503906 94.464844 C 246.6875 95.144531 237.570312 94.039062 227.789062 91.21875 C 225.34375 90.503906 222.867188 89.738281 220.347656 88.878906 C 217.832031 88.007812 215.28125 87.058594 212.710938 86.078125 C 207.589844 84.097656 202.378906 81.957031 197.152344 79.796875 C 191.941406 77.710938 186.730469 75.601562 181.589844 73.855469 C 179.039062 72.960938 176.488281 72.160156 173.96875 71.464844 C 171.453125 70.75 168.972656 70.125 166.527344 69.660156 C 164.15625 69.179688 161.816406 68.804688 159.535156 68.574219 C 159.535156 68.574219 159.5 68.574219 159.445312 68.554688 C 159.320312 68.535156 159.070312 68.519531 158.730469 68.484375 C 158.515625 68.464844 158.320312 68.449219 158.105469 68.429688 C 157.769531 68.394531 157.355469 68.375 156.910156 68.359375 C 156.589844 68.339844 156.25 68.324219 155.875 68.324219 C 155.554688 68.304688 155.199219 68.304688 154.839844 68.304688 C 154.074219 68.289062 153.21875 68.289062 152.308594 68.324219 C 152.09375 68.324219 151.878906 68.339844 151.664062 68.339844 C 151.308594 68.359375 150.949219 68.375 150.574219 68.394531 C 150.253906 68.414062 149.914062 68.429688 149.59375 68.449219 C 149.042969 68.5 148.488281 68.535156 147.898438 68.609375 C 146.488281 68.734375 144.992188 68.929688 143.402344 69.214844 C 142.3125 69.394531 141.191406 69.605469 140.03125 69.875 C 139.226562 70.054688 138.40625 70.25 137.566406 70.484375 C 137.53125 70.484375 137.511719 70.484375 137.496094 70.5 C 123.71875 74.160156 106.390625 83.546875 94.453125 106.902344 C 95.578125 105.171875 113.011719 79.03125 141.867188 76.15625 C 149.21875 75.800781 157.605469 76.941406 166.527344 79.511719 C 166.867188 79.617188 167.207031 79.707031 167.546875 79.816406 C 169.652344 80.4375 171.8125 81.117188 173.96875 81.867188 C 176.488281 82.742188 179.039062 83.6875 181.589844 84.652344 C 186.730469 86.648438 191.941406 88.792969 197.152344 90.949219 C 202.378906 93.039062 207.589844 95.160156 212.710938 96.894531 C 215.28125 97.800781 217.832031 98.605469 220.347656 99.300781 C 222.867188 100.015625 225.34375 100.640625 227.789062 101.121094 C 237.570312 103.121094 246.6875 102.996094 254.503906 100.925781 C 262.335938 98.925781 268.851562 95.054688 273.417969 91.609375 C 275.6875 89.898438 277.488281 88.273438 278.699219 87.167969 C 279.773438 86.1875 280.378906 85.5625 280.539062 85.402344 " fill-opacity="1" fill-rule="nonzero"/></g><g clip-path="url(#97f2382852)"><path fill="#0097b2" d="M 95.320312 117.085938 C 95.320312 117.085938 95.539062 116.785156 95.949219 116.230469 C 96.355469 115.667969 96.960938 114.847656 97.75 113.835938 C 99.3125 111.804688 101.644531 108.972656 104.707031 105.867188 C 106.214844 104.296875 107.980469 102.730469 109.835938 101.082031 C 111.738281 99.484375 113.8125 97.886719 116.011719 96.328125 C 118.230469 94.789062 120.621094 93.363281 123.089844 91.996094 C 125.605469 90.640625 128.128906 89.5 130.890625 88.472656 C 133.476562 87.496094 136.265625 86.75 139 86.210938 C 141.757812 85.71875 144.507812 85.390625 147.191406 85.261719 C 149.875 85.191406 152.488281 85.195312 154.96875 85.371094 C 157.445312 85.550781 159.792969 85.796875 161.960938 86.101562 C 166.285156 86.730469 169.894531 87.4375 172.417969 87.964844 C 174.949219 88.484375 176.394531 88.78125 176.394531 88.78125 C 176.394531 88.78125 176.050781 88.644531 175.410156 88.382812 C 174.765625 88.132812 173.835938 87.71875 172.617188 87.28125 C 170.191406 86.371094 166.6875 85.152344 162.34375 84.089844 C 160.175781 83.554688 157.796875 83.0625 155.242188 82.71875 C 152.6875 82.355469 149.960938 82.136719 147.128906 82.121094 C 144.296875 82.160156 141.347656 82.292969 138.394531 82.820312 C 135.4375 83.363281 132.507812 84.085938 129.570312 85.15625 C 126.828125 86.21875 123.992188 87.539062 121.429688 88.980469 C 118.832031 90.4375 116.425781 92.109375 114.164062 93.796875 C 109.683594 97.234375 105.980469 101.007812 103.183594 104.511719 C 100.351562 107.992188 98.40625 111.175781 97.15625 113.453125 C 96.503906 114.582031 96.09375 115.507812 95.785156 116.128906 C 95.480469 116.753906 95.320312 117.085938 95.320312 117.085938 " fill-opacity="1" fill-rule="nonzero"/></g><path fill="#5ce1e6" d="M 155.875 68.324219 C 155.339844 68.304688 154.734375 68.289062 154.09375 68.289062 L 153.914062 68.289062 C 153.414062 68.289062 152.878906 68.304688 152.308594 68.324219 C 153.21875 68.289062 154.074219 68.289062 154.839844 68.304688 C 155.199219 68.304688 155.554688 68.304688 155.875 68.324219 " fill-opacity="1" fill-rule="nonzero"/><path fill="#5ce1e6" d="M 154.839844 68.304688 C 154.589844 68.304688 154.339844 68.289062 154.09375 68.289062 L 153.914062 68.289062 C 148.898438 68.179688 144.132812 68.699219 139.796875 69.839844 C 139.046875 70.035156 138.296875 70.25 137.566406 70.484375 C 138.40625 70.25 139.226562 70.054688 140.03125 69.875 C 141.191406 69.605469 142.3125 69.394531 143.402344 69.214844 C 144.992188 68.929688 146.488281 68.734375 147.898438 68.609375 C 148.46875 68.535156 149.042969 68.5 149.59375 68.449219 C 149.914062 68.429688 150.253906 68.414062 150.574219 68.394531 C 150.949219 68.375 151.308594 68.359375 151.664062 68.339844 C 151.878906 68.339844 152.09375 68.324219 152.308594 68.324219 C 153.21875 68.289062 154.074219 68.289062 154.839844 68.304688 " fill-opacity="1" fill-rule="nonzero"/><g clip-path="url(#577add4e2d)"><path fill="#0097b2" d="M 274.863281 297.773438 C 271.527344 296.683594 267.601562 295.792969 263.25 295.433594 C 261.75 295.292969 260.199219 295.238281 258.609375 295.238281 C 251.917969 295.238281 244.582031 296.417969 236.785156 298.734375 C 234.019531 299.574219 231.699219 300.34375 229.523438 301.109375 C 227.292969 301.914062 224.953125 302.804688 222.097656 303.929688 C 216.921875 306.015625 211.589844 308.285156 207.074219 310.226562 L 206.519531 310.441406 C 201.773438 312.421875 196.867188 314.457031 192.121094 316.136719 C 189.746094 317.007812 187.300781 317.792969 184.875 318.488281 C 182.234375 319.273438 179.949219 319.847656 177.824219 320.273438 C 173.472656 321.203125 169.191406 321.667969 165.101562 321.667969 C 160.765625 321.667969 156.660156 321.148438 152.878906 320.097656 C 148.183594 318.863281 144.0625 316.882812 140.707031 314.851562 C 144.027344 315.921875 147.9375 316.832031 152.253906 317.171875 C 153.753906 317.3125 155.304688 317.382812 156.894531 317.382812 C 163.585938 317.382812 170.921875 316.1875 178.71875 313.867188 C 181.304688 313.082031 183.695312 312.296875 185.980469 311.496094 C 188.53125 310.566406 191.050781 309.585938 193.40625 308.675781 C 198.578125 306.585938 203.878906 304.320312 208.429688 302.375 L 209.25 302.019531 C 213.90625 300.09375 218.726562 298.09375 223.367188 296.453125 C 225.882812 295.542969 228.328125 294.738281 230.628906 294.078125 C 233.375 293.277344 235.625 292.722656 237.675781 292.292969 C 242.03125 291.367188 246.3125 290.902344 250.398438 290.902344 C 254.738281 290.902344 258.839844 291.4375 262.625 292.472656 C 267.351562 293.722656 271.492188 295.71875 274.863281 297.773438 " fill-opacity="1" fill-rule="nonzero"/></g><g clip-path="url(#081c0cbc63)"><path fill="#5ce1e6" d="M 283.734375 295.03125 C 283.574219 294.945312 282.96875 294.515625 281.894531 293.910156 C 280.683594 293.160156 278.878906 292.160156 276.613281 291.070312 C 272.046875 288.894531 265.53125 286.574219 257.699219 285.96875 C 249.882812 285.289062 240.765625 286.398438 230.984375 289.214844 C 228.539062 289.929688 226.058594 290.695312 223.542969 291.554688 C 221.027344 292.429688 218.476562 293.375 215.90625 294.355469 C 210.785156 296.335938 205.574219 298.476562 200.347656 300.636719 C 195.136719 302.726562 189.925781 304.832031 184.785156 306.578125 C 182.234375 307.472656 179.683594 308.273438 177.164062 308.96875 C 174.648438 309.683594 172.167969 310.308594 169.722656 310.773438 C 167.351562 311.253906 165.011719 311.628906 162.730469 311.859375 C 162.730469 311.859375 162.695312 311.859375 162.640625 311.878906 C 162.515625 311.898438 162.265625 311.914062 161.925781 311.949219 C 161.710938 311.96875 161.515625 311.988281 161.300781 312.003906 C 160.964844 312.039062 160.550781 312.058594 160.105469 312.074219 C 159.785156 312.09375 159.445312 312.109375 159.070312 312.109375 C 158.75 312.128906 158.394531 312.128906 158.035156 312.128906 C 157.269531 312.144531 156.414062 312.144531 155.503906 312.109375 C 155.289062 312.109375 155.074219 312.09375 154.859375 312.09375 C 154.503906 312.074219 154.144531 312.058594 153.769531 312.039062 C 153.449219 312.023438 153.109375 312.003906 152.789062 311.988281 C 152.234375 311.933594 151.683594 311.898438 151.09375 311.824219 C 149.683594 311.699219 148.183594 311.503906 146.597656 311.21875 C 145.507812 311.039062 144.386719 310.828125 143.226562 310.558594 C 142.421875 310.378906 141.601562 310.183594 140.761719 309.949219 C 140.726562 309.949219 140.707031 309.949219 140.691406 309.933594 C 126.914062 306.273438 109.585938 296.890625 97.648438 273.53125 C 98.773438 275.261719 116.207031 301.402344 145.0625 304.277344 C 152.414062 304.632812 160.800781 303.492188 169.722656 300.921875 C 170.0625 300.816406 170.402344 300.726562 170.742188 300.617188 C 172.847656 299.996094 175.007812 299.316406 177.164062 298.566406 C 179.683594 297.691406 182.234375 296.746094 184.785156 295.78125 C 189.925781 293.785156 195.136719 291.644531 200.347656 289.484375 C 205.574219 287.394531 210.785156 285.273438 215.90625 283.539062 C 218.476562 282.632812 221.027344 281.828125 223.542969 281.132812 C 226.058594 280.417969 228.539062 279.792969 230.984375 279.3125 C 240.765625 277.3125 249.882812 277.4375 257.699219 279.507812 C 265.53125 281.507812 272.046875 285.378906 276.613281 288.824219 C 278.878906 290.535156 280.683594 292.160156 281.894531 293.265625 C 282.96875 294.25 283.574219 294.875 283.734375 295.03125 " fill-opacity="1" fill-rule="nonzero"/></g><g clip-path="url(#5390a4d537)"><path fill="#0097b2" d="M 98.515625 263.347656 C 98.515625 263.347656 98.734375 263.648438 99.144531 264.203125 C 99.550781 264.765625 100.15625 265.585938 100.945312 266.597656 C 102.507812 268.628906 104.839844 271.460938 107.902344 274.566406 C 109.410156 276.136719 111.175781 277.703125 113.03125 279.351562 C 114.933594 280.949219 117.003906 282.546875 119.207031 284.105469 C 121.425781 285.644531 123.816406 287.070312 126.285156 288.4375 C 128.800781 289.792969 131.324219 290.933594 134.085938 291.960938 C 136.671875 292.9375 139.460938 293.683594 142.195312 294.222656 C 144.953125 294.714844 147.703125 295.042969 150.386719 295.171875 C 153.070312 295.242188 155.683594 295.238281 158.164062 295.0625 C 160.640625 294.882812 162.988281 294.636719 165.152344 294.332031 C 169.480469 293.703125 173.089844 292.996094 175.613281 292.46875 C 178.144531 291.949219 179.589844 291.652344 179.589844 291.652344 C 179.589844 291.652344 179.246094 291.792969 178.605469 292.050781 C 177.957031 292.300781 177.03125 292.714844 175.808594 293.152344 C 173.386719 294.0625 169.882812 295.285156 165.539062 296.34375 C 163.371094 296.878906 160.988281 297.371094 158.4375 297.714844 C 155.882812 298.078125 153.15625 298.300781 150.324219 298.316406 C 147.492188 298.273438 144.542969 298.140625 141.589844 297.613281 C 138.632812 297.070312 135.703125 296.347656 132.765625 295.277344 C 130.023438 294.214844 127.1875 292.894531 124.625 291.453125 C 122.027344 289.996094 119.621094 288.324219 117.359375 286.636719 C 112.878906 283.199219 109.175781 279.429688 106.378906 275.921875 C 103.546875 272.445312 101.601562 269.257812 100.351562 266.980469 C 99.699219 265.851562 99.289062 264.925781 98.980469 264.304688 C 98.675781 263.679688 98.515625 263.347656 98.515625 263.347656 " fill-opacity="1" fill-rule="nonzero"/></g><path fill="#5ce1e6" d="M 159.070312 312.109375 C 158.535156 312.128906 157.929688 312.144531 157.289062 312.144531 L 157.109375 312.144531 C 156.609375 312.144531 156.074219 312.128906 155.503906 312.109375 C 156.414062 312.144531 157.269531 312.144531 158.035156 312.128906 C 158.394531 312.128906 158.75 312.128906 159.070312 312.109375 " fill-opacity="1" fill-rule="nonzero"/><path fill="#5ce1e6" d="M 158.035156 312.128906 C 157.785156 312.128906 157.535156 312.144531 157.289062 312.144531 L 157.109375 312.144531 C 152.09375 312.253906 147.328125 311.734375 142.992188 310.59375 C 142.242188 310.398438 141.492188 310.183594 140.761719 309.949219 C 141.601562 310.183594 142.421875 310.378906 143.226562 310.558594 C 144.386719 310.828125 145.507812 311.039062 146.597656 311.21875 C 148.183594 311.503906 149.683594 311.699219 151.09375 311.824219 C 151.664062 311.898438 152.234375 311.933594 152.789062 311.988281 C 153.109375 312.003906 153.449219 312.023438 153.769531 312.039062 C 154.144531 312.058594 154.503906 312.074219 154.859375 312.09375 C 155.074219 312.09375 155.289062 312.109375 155.503906 312.109375 C 156.414062 312.144531 157.269531 312.144531 158.035156 312.128906 " fill-opacity="1" fill-rule="nonzero"/><g clip-path="url(#cf8b189822)"><path fill="#000000" d="M 188.890625 216.75 L 159.992188 242.300781 L 184.816406 224.460938 Z M 188.890625 216.75 " fill-opacity="1" fill-rule="nonzero"/></g><g clip-path="url(#89da3baf26)"><path fill="#000000" d="M 197.335938 239.382812 L 159.472656 268.925781 L 204.433594 238.125 Z M 197.335938 239.382812 " fill-opacity="1" fill-rule="nonzero"/></g><path fill="#000000" d="M 184.980469 227.855469 L 168.007812 242.128906 L 185.628906 230.203125 Z M 184.980469 227.855469 " fill-opacity="1" fill-rule="nonzero"/><path fill="#000000" d="M 193.03125 238.835938 L 170.390625 254.742188 L 191.179688 237.28125 Z M 193.03125 238.835938 " fill-opacity="1" fill-rule="nonzero"/><path fill="#000000" d="M 188.542969 235.902344 L 160.125 255.089844 L 186.734375 232.964844 Z M 188.542969 235.902344 " fill-opacity="1" fill-rule="nonzero"/><path fill="#ffffff" d="M 214.300781 224.792969 C 214.300781 216.199219 207.332031 209.234375 198.742188 209.234375 C 190.148438 209.234375 183.183594 216.199219 183.183594 224.792969 C 183.183594 233.382812 190.148438 240.347656 198.742188 240.347656 C 207.332031 240.347656 214.300781 233.382812 214.300781 224.792969 " fill-opacity="1" fill-rule="nonzero"/><path fill="#000000" d="M 207.390625 237.246094 C 206.160156 237.847656 205.410156 237.992188 204.976562 237.992188 C 205.488281 237.347656 206.5625 235.980469 207.066406 235.109375 C 207.628906 234.765625 210.949219 232.648438 212.519531 229.578125 L 213.125 229.605469 C 212.085938 232.695312 210.066406 235.382812 207.390625 237.246094 Z M 198.207031 239.949219 C 198.65625 239.800781 199.105469 239.605469 199.515625 239.332031 C 200.589844 239.199219 203.027344 238.867188 204.238281 238.503906 C 204.394531 238.578125 204.617188 238.640625 204.921875 238.644531 C 203.679688 239.195312 202.347656 239.589844 200.941406 239.796875 C 200.019531 239.929688 199.105469 239.980469 198.207031 239.949219 Z M 188.503906 235.96875 C 188.289062 235.363281 188.074219 234.519531 187.917969 233.789062 C 188.582031 233.785156 190.015625 233.722656 191.121094 233.257812 C 191.121094 233.257812 190.421875 228.914062 190.417969 227.539062 C 191.238281 227.085938 194.179688 225.445312 195.984375 224.363281 C 197.027344 225.089844 200.730469 226.476562 201.914062 226.6875 C 202.003906 227.671875 202.3125 231.027344 202.488281 233.144531 C 202.042969 233.601562 200.703125 234.792969 197.871094 236 C 195.640625 235.71875 190.980469 232.699219 190.933594 232.671875 L 191.121094 233.257812 L 190.707031 233.34375 C 190.886719 233.457031 195.058594 236.113281 197.480469 236.589844 C 197.78125 237.195312 198.386719 238.417969 198.742188 239.035156 C 197.769531 239.523438 196.625 239.65625 195.882812 239.683594 C 193.101562 239.148438 190.554688 237.839844 188.503906 235.96875 Z M 184.527344 228.304688 C 184.769531 229.183594 185.632812 231.964844 187.195312 233.464844 C 187.261719 233.804688 187.382812 234.390625 187.539062 235.003906 C 185.734375 233.03125 184.433594 230.558594 183.875 227.773438 C 184.109375 228.007812 184.339844 228.183594 184.527344 228.304688 Z M 200.960938 209.789062 C 200.945312 209.847656 200.929688 209.90625 200.914062 209.964844 C 197.636719 209.707031 193.898438 210.824219 193.726562 210.875 L 193.730469 210.886719 L 192.828125 210.828125 C 193.992188 210.332031 195.238281 209.976562 196.546875 209.785156 C 198.046875 209.566406 199.53125 209.578125 200.960938 209.789062 Z M 213.363281 220.976562 C 212.703125 218.832031 211.71875 217.015625 210.925781 215.757812 C 212.074219 217.304688 212.941406 219.082031 213.4375 221.03125 C 213.410156 221.011719 213.386719 220.996094 213.363281 220.976562 Z M 211.75 223.457031 C 210.195312 222.875 207.65625 222.261719 206.675781 222.03125 C 206.285156 221.292969 204.25 217.492188 203.523438 216.425781 C 204.148438 215.347656 204.984375 213.691406 205.398438 212.855469 C 206.269531 213.148438 209.097656 214.316406 209.097656 214.316406 C 209.125 214.34375 211.601562 217.304688 212.804688 221.355469 C 212.804688 221.355469 212.074219 222.988281 211.75 223.457031 Z M 196.839844 216.953125 C 195.300781 215.625 193.136719 214.410156 192.238281 213.929688 C 192.574219 213.238281 193.914062 211.492188 193.914062 211.492188 C 193.957031 211.480469 198.269531 210.191406 201.550781 210.6875 C 202.550781 211.054688 204.160156 211.734375 204.847656 212.515625 C 204.277344 213.664062 203.503906 215.164062 202.972656 216.097656 C 201.792969 216.019531 198.027344 216.394531 196.839844 216.953125 Z M 184.566406 227.53125 C 184.277344 227.292969 183.945312 226.941406 183.671875 226.441406 C 183.289062 222.980469 184.117188 219.636719 185.832031 216.855469 L 186.515625 217.679688 C 186.214844 218.839844 185.636719 221.636719 186.042969 224.675781 C 185.632812 225.265625 184.875 226.449219 184.566406 227.53125 Z M 195.714844 223.773438 C 193.90625 224.859375 190.859375 226.558594 190.078125 226.992188 C 189.300781 226.589844 187.53125 225.632812 186.726562 224.898438 C 186.214844 221.613281 186.964844 218.480469 187.210938 217.578125 C 188.125 216.765625 190.257812 214.976562 191.859375 214.460938 C 192.699219 214.910156 194.96875 216.171875 196.496094 217.507812 C 196.328125 218.710938 195.792969 222.59375 195.714844 223.773438 Z M 206.980469 234.398438 C 206.222656 234.304688 204.449219 234.019531 203.144531 233.265625 C 202.957031 230.980469 202.597656 227.058594 202.539062 226.425781 C 203.386719 225.675781 205.65625 223.640625 206.457031 222.644531 C 207.78125 222.953125 210.371094 223.601562 211.71875 224.136719 C 212.265625 225.65625 212.292969 227.519531 212.246094 228.621094 C 211.085938 231.53125 207.976562 233.746094 206.980469 234.398438 Z M 196.472656 209.28125 C 188.660156 210.421875 183.03125 217.179688 183.066406 224.859375 L 183.058594 224.859375 C 183.0625 224.878906 183.066406 224.894531 183.066406 224.914062 C 183.074219 225.621094 183.128906 226.339844 183.234375 227.0625 C 184.484375 235.617188 192.460938 241.554688 201.015625 240.304688 C 209.570312 239.050781 215.507812 231.074219 214.257812 222.519531 C 213.003906 213.96875 205.027344 208.027344 196.472656 209.28125 " fill-opacity="1" fill-rule="nonzero"/></svg>