<svg xmlns="http://www.w3.org/2000/svg" xmlns:xlink="http://www.w3.org/1999/xlink" width="500" zoomAndPan="magnify" viewBox="0 0 375 374.999991" height="500" preserveAspectRatio="xMidYMid meet" version="1.0"><defs><g/><clipPath id="8005dd3fd7"><path d="M 157 170 L 264 170 L 264 194.648438 L 157 194.648438 Z M 157 170 " clip-rule="nonzero"/></clipPath><clipPath id="a79848c7db"><path d="M 122.644531 156 L 271 156 L 271 187 L 122.644531 187 Z M 122.644531 156 " clip-rule="nonzero"/></clipPath><clipPath id="2cf2814e25"><path d="M 123 148.148438 L 188 148.148438 L 188 176 L 123 176 Z M 123 148.148438 " clip-rule="nonzero"/></clipPath><clipPath id="57cd009b6d"><path d="M 163.039062 106 L 199 106 L 199 138 L 163.039062 138 Z M 163.039062 106 " clip-rule="nonzero"/></clipPath><clipPath id="8561b8c0e5"><path d="M 163.039062 132 L 218 132 L 218 169.375 L 163.039062 169.375 Z M 163.039062 132 " clip-rule="nonzero"/></clipPath><clipPath id="b52d0802e8"><path d="M 163.039062 125 L 199 125 L 199 153 L 163.039062 153 Z M 163.039062 125 " clip-rule="nonzero"/></clipPath></defs><rect x="-37.5" width="450" fill="#ffffff" y="-37.499999" height="449.999989" fill-opacity="1"/><rect x="-37.5" width="450" fill="#ffffff" y="-37.499999" height="449.999989" fill-opacity="1"/><g clip-path="url(#8005dd3fd7)"><path fill="#0097b2" d="M 263.6875 175.503906 C 261.035156 174.640625 257.917969 173.929688 254.457031 173.648438 C 253.265625 173.535156 252.03125 173.492188 250.769531 173.492188 C 245.453125 173.492188 239.625 174.425781 233.429688 176.269531 C 231.230469 176.9375 229.386719 177.546875 227.65625 178.15625 C 225.882812 178.792969 224.027344 179.503906 221.757812 180.398438 C 217.644531 182.054688 213.40625 183.855469 209.816406 185.402344 L 209.378906 185.574219 C 205.605469 187.148438 201.707031 188.761719 197.933594 190.097656 C 196.046875 190.789062 194.105469 191.414062 192.175781 191.96875 C 190.078125 192.589844 188.261719 193.046875 186.574219 193.386719 C 183.117188 194.121094 179.710938 194.492188 176.464844 194.492188 C 173.019531 194.492188 169.757812 194.082031 166.75 193.242188 C 163.023438 192.265625 159.746094 190.691406 157.082031 189.074219 C 159.71875 189.925781 162.824219 190.648438 166.253906 190.917969 C 167.445312 191.03125 168.679688 191.089844 169.941406 191.089844 C 175.261719 191.089844 181.089844 190.136719 187.285156 188.296875 C 189.339844 187.671875 191.242188 187.046875 193.054688 186.410156 C 195.085938 185.671875 197.082031 184.890625 198.957031 184.167969 C 203.066406 182.507812 207.277344 180.707031 210.894531 179.164062 L 211.546875 178.878906 C 215.25 177.347656 219.078125 175.761719 222.765625 174.457031 C 224.761719 173.730469 226.707031 173.09375 228.535156 172.570312 C 230.71875 171.929688 232.507812 171.492188 234.136719 171.152344 C 237.597656 170.414062 241 170.042969 244.246094 170.042969 C 247.691406 170.042969 250.953125 170.46875 253.960938 171.292969 C 257.71875 172.285156 261.007812 173.875 263.6875 175.503906 " fill-opacity="1" fill-rule="nonzero"/></g><g clip-path="url(#a79848c7db)"><path fill="#5ce1e6" d="M 270.734375 173.328125 C 270.609375 173.257812 270.125 172.917969 269.277344 172.433594 C 268.3125 171.839844 266.878906 171.046875 265.078125 170.179688 C 261.449219 168.449219 256.273438 166.605469 250.046875 166.125 C 243.835938 165.585938 236.589844 166.464844 228.820312 168.703125 C 226.875 169.273438 224.90625 169.882812 222.90625 170.5625 C 220.90625 171.257812 218.878906 172.007812 216.835938 172.789062 C 212.765625 174.363281 208.625 176.066406 204.472656 177.78125 C 200.332031 179.441406 196.191406 181.113281 192.105469 182.503906 C 190.078125 183.210938 188.050781 183.847656 186.050781 184.402344 C 184.050781 184.96875 182.082031 185.464844 180.136719 185.835938 C 178.253906 186.21875 176.394531 186.515625 174.578125 186.699219 C 174.578125 186.699219 174.550781 186.699219 174.507812 186.714844 C 174.410156 186.726562 174.210938 186.742188 173.941406 186.769531 C 173.769531 186.785156 173.613281 186.800781 173.445312 186.8125 C 173.175781 186.839844 172.847656 186.855469 172.496094 186.871094 C 172.238281 186.882812 171.96875 186.898438 171.671875 186.898438 C 171.417969 186.914062 171.132812 186.914062 170.847656 186.914062 C 170.238281 186.925781 169.558594 186.925781 168.835938 186.898438 C 168.664062 186.898438 168.496094 186.882812 168.324219 186.882812 C 168.042969 186.871094 167.757812 186.855469 167.460938 186.839844 C 167.207031 186.828125 166.933594 186.8125 166.679688 186.800781 C 166.242188 186.757812 165.800781 186.726562 165.332031 186.671875 C 164.214844 186.574219 163.023438 186.417969 161.761719 186.191406 C 160.894531 186.046875 160 185.878906 159.078125 185.664062 C 158.441406 185.523438 157.789062 185.367188 157.125 185.183594 C 157.09375 185.183594 157.082031 185.183594 157.066406 185.167969 C 146.121094 182.261719 132.347656 174.800781 122.863281 156.242188 C 123.757812 157.617188 137.609375 178.390625 160.539062 180.671875 C 166.382812 180.957031 173.046875 180.050781 180.136719 178.007812 C 180.40625 177.921875 180.675781 177.851562 180.945312 177.765625 C 182.617188 177.269531 184.335938 176.730469 186.050781 176.136719 C 188.050781 175.441406 190.078125 174.6875 192.105469 173.921875 C 196.191406 172.335938 200.332031 170.632812 204.472656 168.917969 C 208.625 167.257812 212.765625 165.570312 216.835938 164.195312 C 218.878906 163.472656 220.90625 162.835938 222.90625 162.28125 C 224.90625 161.714844 226.875 161.21875 228.820312 160.835938 C 236.589844 159.246094 243.835938 159.34375 250.046875 160.992188 C 256.273438 162.578125 261.449219 165.65625 265.078125 168.394531 C 266.878906 169.753906 268.3125 171.046875 269.277344 171.925781 C 270.125 172.703125 270.609375 173.199219 270.734375 173.328125 " fill-opacity="1" fill-rule="nonzero"/></g><g clip-path="url(#2cf2814e25)"><path fill="#0097b2" d="M 123.550781 148.148438 C 123.550781 148.148438 123.726562 148.386719 124.050781 148.828125 C 124.371094 149.273438 124.855469 149.929688 125.480469 150.730469 C 126.722656 152.34375 128.578125 154.597656 131.007812 157.0625 C 132.210938 158.3125 133.613281 159.554688 135.085938 160.867188 C 136.597656 162.136719 138.246094 163.40625 139.996094 164.644531 C 141.753906 165.867188 143.65625 167 145.617188 168.085938 C 147.617188 169.164062 149.621094 170.070312 151.816406 170.886719 C 153.871094 171.660156 156.089844 172.253906 158.261719 172.683594 C 160.453125 173.074219 162.636719 173.335938 164.769531 173.4375 C 166.902344 173.492188 168.980469 173.492188 170.949219 173.351562 C 172.917969 173.207031 174.785156 173.011719 176.507812 172.769531 C 179.945312 172.269531 182.8125 171.707031 184.816406 171.289062 C 186.828125 170.875 187.976562 170.640625 187.976562 170.640625 C 187.976562 170.640625 187.707031 170.75 187.195312 170.957031 C 186.679688 171.15625 185.945312 171.484375 184.972656 171.832031 C 183.050781 172.558594 180.265625 173.527344 176.8125 174.367188 C 175.089844 174.792969 173.195312 175.1875 171.167969 175.457031 C 169.140625 175.746094 166.972656 175.921875 164.71875 175.933594 C 162.46875 175.902344 160.125 175.796875 157.78125 175.378906 C 155.429688 174.945312 153.105469 174.371094 150.769531 173.519531 C 148.589844 172.675781 146.335938 171.625 144.296875 170.480469 C 142.234375 169.324219 140.324219 167.996094 138.527344 166.65625 C 134.964844 163.921875 132.019531 160.925781 129.800781 158.140625 C 127.546875 155.375 126.003906 152.84375 125.007812 151.035156 C 124.492188 150.140625 124.164062 149.402344 123.917969 148.910156 C 123.679688 148.414062 123.550781 148.148438 123.550781 148.148438 " fill-opacity="1" fill-rule="nonzero"/></g><path fill="#5ce1e6" d="M 171.671875 186.898438 C 171.246094 186.914062 170.765625 186.925781 170.253906 186.925781 L 170.113281 186.925781 C 169.714844 186.925781 169.289062 186.914062 168.835938 186.898438 C 169.558594 186.925781 170.238281 186.925781 170.847656 186.914062 C 171.132812 186.914062 171.417969 186.914062 171.671875 186.898438 " fill-opacity="1" fill-rule="nonzero"/><path fill="#5ce1e6" d="M 170.847656 186.914062 C 170.652344 186.914062 170.453125 186.925781 170.253906 186.925781 L 170.113281 186.925781 C 166.128906 187.011719 162.339844 186.601562 158.894531 185.691406 C 158.300781 185.535156 157.703125 185.367188 157.125 185.183594 C 157.789062 185.367188 158.441406 185.523438 159.078125 185.664062 C 160 185.878906 160.894531 186.046875 161.761719 186.191406 C 163.023438 186.417969 164.214844 186.574219 165.332031 186.671875 C 165.785156 186.726562 166.242188 186.757812 166.679688 186.800781 C 166.933594 186.8125 167.207031 186.828125 167.460938 186.839844 C 167.757812 186.855469 168.042969 186.871094 168.324219 186.882812 C 168.496094 186.882812 168.664062 186.898438 168.835938 186.898438 C 169.558594 186.925781 170.238281 186.925781 170.847656 186.914062 " fill-opacity="1" fill-rule="nonzero"/><g clip-path="url(#57cd009b6d)"><path fill="#000000" d="M 198.472656 106.40625 L 163.660156 137.191406 L 193.566406 115.695312 Z M 198.472656 106.40625 " fill-opacity="1" fill-rule="nonzero"/></g><g clip-path="url(#8561b8c0e5)"><path fill="#000000" d="M 208.648438 133.675781 L 163.035156 169.265625 L 217.199219 132.160156 Z M 208.648438 133.675781 " fill-opacity="1" fill-rule="nonzero"/></g><path fill="#000000" d="M 193.761719 119.789062 L 173.316406 136.980469 L 194.546875 122.617188 Z M 193.761719 119.789062 " fill-opacity="1" fill-rule="nonzero"/><path fill="#000000" d="M 203.460938 133.015625 L 176.1875 152.175781 L 201.230469 131.140625 Z M 203.460938 133.015625 " fill-opacity="1" fill-rule="nonzero"/><g clip-path="url(#b52d0802e8)"><path fill="#000000" d="M 198.054688 129.476562 L 163.820312 152.597656 L 195.878906 125.941406 Z M 198.054688 129.476562 " fill-opacity="1" fill-rule="nonzero"/></g><path fill="#ffffff" d="M 229.085938 116.09375 C 229.085938 105.742188 220.691406 97.351562 210.339844 97.351562 C 199.992188 97.351562 191.601562 105.742188 191.601562 116.09375 C 191.601562 126.445312 199.992188 134.835938 210.339844 134.835938 C 220.691406 134.835938 229.085938 126.445312 229.085938 116.09375 " fill-opacity="1" fill-rule="nonzero"/><path fill="#000000" d="M 220.761719 131.101562 C 219.28125 131.824219 218.375 131.996094 217.851562 131.996094 C 218.472656 131.222656 219.761719 129.574219 220.371094 128.523438 C 221.046875 128.113281 225.050781 125.558594 226.941406 121.863281 L 227.667969 121.890625 C 226.417969 125.613281 223.984375 128.855469 220.761719 131.101562 Z M 209.699219 134.355469 C 210.242188 134.179688 210.78125 133.9375 211.273438 133.613281 C 212.570312 133.449219 215.503906 133.050781 216.964844 132.617188 C 217.152344 132.707031 217.417969 132.777344 217.785156 132.78125 C 216.292969 133.449219 214.6875 133.925781 212.992188 134.171875 C 211.882812 134.332031 210.78125 134.394531 209.699219 134.355469 Z M 198.007812 129.558594 C 197.746094 128.832031 197.492188 127.816406 197.300781 126.933594 C 198.101562 126.929688 199.832031 126.855469 201.164062 126.296875 C 201.164062 126.296875 200.320312 121.058594 200.316406 119.40625 C 201.300781 118.855469 204.84375 116.882812 207.019531 115.582031 C 208.277344 116.453125 212.738281 118.121094 214.164062 118.378906 C 214.273438 119.566406 214.640625 123.605469 214.855469 126.15625 C 214.320312 126.707031 212.707031 128.140625 209.292969 129.597656 C 206.605469 129.257812 200.988281 125.621094 200.9375 125.585938 L 201.164062 126.296875 L 200.664062 126.398438 C 200.878906 126.535156 205.902344 129.734375 208.824219 130.308594 C 209.183594 131.039062 209.914062 132.511719 210.339844 133.253906 C 209.167969 133.84375 207.792969 134 206.898438 134.035156 C 203.546875 133.390625 200.476562 131.816406 198.007812 129.558594 Z M 193.21875 120.328125 C 193.511719 121.386719 194.550781 124.734375 196.429688 126.546875 C 196.511719 126.953125 196.65625 127.660156 196.847656 128.398438 C 194.671875 126.019531 193.105469 123.042969 192.433594 119.6875 C 192.714844 119.96875 192.992188 120.179688 193.21875 120.328125 Z M 213.015625 98.019531 C 212.996094 98.089844 212.976562 98.160156 212.957031 98.230469 C 209.011719 97.921875 204.507812 99.265625 204.300781 99.328125 L 204.308594 99.34375 L 203.214844 99.269531 C 204.621094 98.675781 206.121094 98.246094 207.699219 98.015625 C 209.507812 97.75 211.292969 97.765625 213.015625 98.019531 Z M 227.957031 111.5 C 227.160156 108.914062 225.976562 106.726562 225.019531 105.214844 C 226.402344 107.074219 227.445312 109.21875 228.046875 111.566406 C 228.015625 111.542969 227.988281 111.519531 227.957031 111.5 Z M 226.011719 114.488281 C 224.144531 113.785156 221.082031 113.046875 219.902344 112.769531 C 219.429688 111.882812 216.976562 107.300781 216.101562 106.019531 C 216.855469 104.714844 217.863281 102.722656 218.363281 101.714844 C 219.410156 102.066406 222.820312 103.472656 222.820312 103.472656 C 222.851562 103.507812 225.835938 107.074219 227.285156 111.953125 C 227.285156 111.953125 226.402344 113.921875 226.011719 114.488281 Z M 208.054688 106.652344 C 206.195312 105.050781 203.589844 103.589844 202.503906 103.007812 C 202.910156 102.175781 204.527344 100.074219 204.527344 100.074219 C 204.578125 100.058594 209.773438 98.507812 213.722656 99.101562 C 214.929688 99.546875 216.871094 100.367188 217.695312 101.304688 C 217.007812 102.691406 216.078125 104.496094 215.4375 105.617188 C 214.015625 105.527344 209.484375 105.980469 208.054688 106.652344 Z M 193.261719 119.394531 C 192.917969 119.105469 192.519531 118.683594 192.183594 118.082031 C 191.726562 113.910156 192.726562 109.882812 194.789062 106.535156 L 195.613281 107.527344 C 195.25 108.921875 194.554688 112.292969 195.042969 115.957031 C 194.550781 116.664062 193.632812 118.089844 193.261719 119.394531 Z M 206.695312 114.867188 C 204.515625 116.179688 200.84375 118.222656 199.902344 118.742188 C 198.96875 118.261719 196.835938 117.109375 195.867188 116.222656 C 195.253906 112.265625 196.152344 108.492188 196.453125 107.402344 C 197.550781 106.425781 200.125 104.269531 202.050781 103.648438 C 203.0625 104.1875 205.796875 105.710938 207.632812 107.320312 C 207.433594 108.769531 206.789062 113.445312 206.695312 114.867188 Z M 220.265625 127.667969 C 219.355469 127.558594 217.21875 127.210938 215.648438 126.300781 C 215.421875 123.550781 214.988281 118.824219 214.917969 118.0625 C 215.9375 117.160156 218.671875 114.707031 219.636719 113.507812 C 221.234375 113.878906 224.355469 114.664062 225.976562 115.304688 C 226.632812 117.136719 226.667969 119.382812 226.613281 120.707031 C 225.210938 124.210938 221.46875 126.878906 220.265625 127.667969 Z M 207.609375 97.40625 C 198.199219 98.785156 191.414062 106.921875 191.457031 116.175781 L 191.449219 116.175781 C 191.453125 116.199219 191.457031 116.21875 191.460938 116.242188 C 191.464844 117.09375 191.53125 117.960938 191.660156 118.832031 C 193.167969 129.136719 202.777344 136.292969 213.082031 134.78125 C 223.386719 133.273438 230.542969 123.664062 229.035156 113.359375 C 227.523438 103.054688 217.914062 95.898438 207.609375 97.40625 " fill-opacity="1" fill-rule="nonzero"/><g fill="#000000" fill-opacity="1"><g transform="translate(112.502381, 233.859526)"><g><path d="M 5.09375 -21.046875 L 5.09375 -10.984375 L 17.046875 -10.984375 L 17.046875 -10.03125 L 5.09375 -10.03125 L 5.09375 0 L 4.03125 0 L 4.03125 -22.015625 L 18.46875 -22.015625 L 18.46875 -21.046875 Z M 5.09375 -21.046875 "/></g></g></g><g fill="#000000" fill-opacity="1"><g transform="translate(132.317951, 233.859526)"><g><path d="M 17.515625 -6.453125 L 4.34375 -6.453125 L 1.390625 0 L 0.21875 0 L 10.40625 -22.015625 L 11.453125 -22.015625 L 21.640625 0 L 20.46875 0 Z M 17.109375 -7.359375 L 10.953125 -20.796875 L 4.75 -7.359375 Z M 17.109375 -7.359375 "/></g></g></g><g fill="#000000" fill-opacity="1"><g transform="translate(154.209437, 233.859526)"><g><path d="M 21.609375 -22.015625 L 21.609375 0 L 20.734375 0 L 5.09375 -20.0625 L 5.09375 0 L 4.03125 0 L 4.03125 -22.015625 L 4.90625 -22.015625 L 20.53125 -1.953125 L 20.53125 -22.015625 Z M 21.609375 -22.015625 "/></g></g></g><g fill="#000000" fill-opacity="1"><g transform="translate(179.843863, 233.859526)"><g><path d="M 8.203125 -21.046875 L 0.125 -21.046875 L 0.125 -22.015625 L 17.328125 -22.015625 L 17.328125 -21.046875 L 9.25 -21.046875 L 9.25 0 L 8.203125 0 Z M 8.203125 -21.046875 "/></g></g></g><g fill="#000000" fill-opacity="1"><g transform="translate(197.300437, 233.859526)"><g><path d="M 17.515625 -6.453125 L 4.34375 -6.453125 L 1.390625 0 L 0.21875 0 L 10.40625 -22.015625 L 11.453125 -22.015625 L 21.640625 0 L 20.46875 0 Z M 17.109375 -7.359375 L 10.953125 -20.796875 L 4.75 -7.359375 Z M 17.109375 -7.359375 "/></g></g></g><g fill="#000000" fill-opacity="1"><g transform="translate(219.191923, 233.859526)"><g><path d="M 9.59375 0.125 C 8 0.125 6.484375 -0.15625 5.046875 -0.71875 C 3.609375 -1.289062 2.503906 -2.023438 1.734375 -2.921875 L 2.296875 -3.6875 C 3.023438 -2.84375 4.046875 -2.148438 5.359375 -1.609375 C 6.671875 -1.078125 8.070312 -0.8125 9.5625 -0.8125 C 11.757812 -0.8125 13.421875 -1.242188 14.546875 -2.109375 C 15.671875 -2.984375 16.234375 -4.101562 16.234375 -5.46875 C 16.234375 -6.519531 15.9375 -7.363281 15.34375 -8 C 14.757812 -8.644531 14.035156 -9.128906 13.171875 -9.453125 C 12.316406 -9.773438 11.144531 -10.113281 9.65625 -10.46875 C 8.0625 -10.875 6.78125 -11.265625 5.8125 -11.640625 C 4.851562 -12.015625 4.035156 -12.585938 3.359375 -13.359375 C 2.691406 -14.140625 2.359375 -15.179688 2.359375 -16.484375 C 2.359375 -17.503906 2.628906 -18.445312 3.171875 -19.3125 C 3.722656 -20.175781 4.554688 -20.863281 5.671875 -21.375 C 6.796875 -21.882812 8.195312 -22.140625 9.875 -22.140625 C 11.070312 -22.140625 12.25 -21.960938 13.40625 -21.609375 C 14.570312 -21.253906 15.566406 -20.757812 16.390625 -20.125 L 15.921875 -19.28125 C 15.054688 -19.90625 14.09375 -20.378906 13.03125 -20.703125 C 11.976562 -21.035156 10.9375 -21.203125 9.90625 -21.203125 C 7.769531 -21.203125 6.148438 -20.753906 5.046875 -19.859375 C 3.941406 -18.972656 3.390625 -17.847656 3.390625 -16.484375 C 3.390625 -15.410156 3.6875 -14.550781 4.28125 -13.90625 C 4.882812 -13.269531 5.617188 -12.785156 6.484375 -12.453125 C 7.359375 -12.117188 8.53125 -11.773438 10 -11.421875 C 11.59375 -11.015625 12.867188 -10.628906 13.828125 -10.265625 C 14.796875 -9.898438 15.609375 -9.332031 16.265625 -8.5625 C 16.929688 -7.800781 17.265625 -6.78125 17.265625 -5.5 C 17.265625 -4.476562 16.984375 -3.535156 16.421875 -2.671875 C 15.867188 -1.816406 15.015625 -1.132812 13.859375 -0.625 C 12.710938 -0.125 11.289062 0.125 9.59375 0.125 Z M 9.59375 0.125 "/></g></g></g><g fill="#000000" fill-opacity="1"><g transform="translate(238.189702, 233.859526)"><g><path d="M 18.90625 -0.96875 L 18.90625 0 L 4.03125 0 L 4.03125 -22.015625 L 18.46875 -22.015625 L 18.46875 -21.046875 L 5.09375 -21.046875 L 5.09375 -11.671875 L 17.046875 -11.671875 L 17.046875 -10.6875 L 5.09375 -10.6875 L 5.09375 -0.96875 Z M 18.90625 -0.96875 "/></g></g></g><g fill="#000000" fill-opacity="1"><g transform="translate(259.200491, 233.859526)"><g><path d="M 17.515625 -6.453125 L 4.34375 -6.453125 L 1.390625 0 L 0.21875 0 L 10.40625 -22.015625 L 11.453125 -22.015625 L 21.640625 0 L 20.46875 0 Z M 17.109375 -7.359375 L 10.953125 -20.796875 L 4.75 -7.359375 Z M 17.109375 -7.359375 "/></g></g></g></svg>