<svg xmlns="http://www.w3.org/2000/svg" xmlns:xlink="http://www.w3.org/1999/xlink" width="500" zoomAndPan="magnify" viewBox="0 0 375 374.999991" height="500" preserveAspectRatio="xMidYMid meet" version="1.0"><defs><g/><clipPath id="24a95a00b9"><path d="M 37.5 37.5 L 161.25 37.5 L 161.25 161.25 L 37.5 161.25 Z M 37.5 37.5 " clip-rule="nonzero"/></clipPath><clipPath id="b9edc36c4c"><path d="M 69 121 L 149 121 L 149 139.570312 L 69 139.570312 Z M 69 121 " clip-rule="nonzero"/></clipPath><clipPath id="0d3e0d560a"><path d="M 44.351562 111 L 153.851562 111 L 153.851562 134 L 44.351562 134 Z M 44.351562 111 " clip-rule="nonzero"/></clipPath><clipPath id="db439096d8"><path d="M 45 105.070312 L 93 105.070312 L 93 126 L 45 126 Z M 45 105.070312 " clip-rule="nonzero"/></clipPath><clipPath id="ecfb1ec0cf"><path d="M 74.246094 74 L 101 74 L 101 97 L 74.246094 97 Z M 74.246094 74 " clip-rule="nonzero"/></clipPath><clipPath id="01403fb090"><path d="M 74.246094 93 L 115 93 L 115 120.394531 L 74.246094 120.394531 Z M 74.246094 93 " clip-rule="nonzero"/></clipPath><clipPath id="59b0869993"><path d="M 74.246094 88 L 101 88 L 101 109 L 74.246094 109 Z M 74.246094 88 " clip-rule="nonzero"/></clipPath></defs><rect x="-37.5" width="450" fill="#ffffff" y="-37.499999" height="449.999989" fill-opacity="1"/><rect x="-37.5" width="450" fill="#ffffff" y="-37.499999" height="449.999989" fill-opacity="1"/><g clip-path="url(#24a95a00b9)"><path fill="#000000" d="M 100.210938 161.058594 C 108.289062 160.941406 116.308594 159.238281 123.679688 156.066406 C 131.054688 152.894531 137.808594 148.3125 143.421875 142.613281 C 149.03125 136.914062 153.554688 130.128906 156.578125 122.757812 C 159.632812 115.382812 161.191406 107.394531 161.191406 99.40625 C 161.191406 107.394531 159.605469 115.382812 156.550781 122.757812 C 153.496094 130.128906 148.914062 136.886719 143.242188 142.464844 C 137.574219 148.074219 130.789062 152.511719 123.417969 155.476562 C 116.042969 158.445312 108.085938 159.882812 100.183594 159.765625 C 92.28125 159.648438 84.4375 157.945312 77.210938 154.832031 C 70.015625 151.71875 63.4375 147.164062 58.003906 141.585938 C 52.539062 136.003906 48.191406 129.363281 45.285156 122.140625 C 42.347656 114.941406 40.847656 107.160156 40.847656 99.40625 C 40.847656 91.621094 42.347656 83.867188 45.285156 76.667969 C 48.222656 69.472656 52.570312 62.835938 58.003906 57.253906 C 63.464844 51.671875 70.015625 47.121094 77.210938 44.007812 C 84.46875 40.832031 92.3125 39.160156 100.210938 39.042969 C 108.113281 38.925781 116.074219 40.363281 123.445312 43.332031 C 130.820312 46.269531 137.605469 50.734375 143.304688 56.34375 C 148.972656 61.953125 153.523438 68.679688 156.609375 76.050781 C 159.691406 83.425781 161.25 91.414062 161.25 99.40625 C 161.25 91.414062 159.691406 83.425781 156.636719 76.050781 C 153.582031 68.652344 149.089844 61.894531 143.480469 56.195312 C 137.867188 50.496094 131.113281 45.886719 123.738281 42.742188 C 116.308594 39.511719 108.289062 37.835938 100.210938 37.691406 C 92.132812 37.574219 83.996094 39.011719 76.449219 42.039062 C 68.898438 45.035156 61.910156 49.558594 56.0625 55.257812 C 50.21875 60.953125 45.519531 67.855469 42.316406 75.40625 C 39.144531 82.957031 37.5 91.179688 37.5 99.375 C 37.5 107.570312 39.144531 115.792969 42.347656 123.34375 C 45.519531 130.894531 50.246094 137.796875 56.09375 143.492188 C 61.9375 149.191406 68.898438 153.714844 76.476562 156.710938 C 83.996094 159.738281 92.132812 161.175781 100.210938 161.058594 Z M 100.210938 161.058594 " fill-opacity="1" fill-rule="nonzero"/></g><g clip-path="url(#b9edc36c4c)"><path fill="#0097b2" d="M 148.710938 125.308594 C 146.75 124.671875 144.441406 124.144531 141.882812 123.9375 C 141 123.851562 140.089844 123.820312 139.152344 123.820312 C 135.21875 123.820312 130.90625 124.511719 126.324219 125.878906 C 124.699219 126.371094 123.332031 126.820312 122.054688 127.273438 C 120.742188 127.746094 119.367188 128.269531 117.691406 128.929688 C 114.648438 130.15625 111.511719 131.488281 108.855469 132.632812 L 108.53125 132.757812 C 105.742188 133.925781 102.855469 135.121094 100.066406 136.105469 C 98.667969 136.621094 97.230469 137.082031 95.804688 137.492188 C 94.253906 137.953125 92.910156 138.289062 91.660156 138.539062 C 89.101562 139.085938 86.582031 139.359375 84.179688 139.359375 C 81.632812 139.359375 79.21875 139.054688 76.996094 138.433594 C 74.234375 137.710938 71.8125 136.546875 69.839844 135.351562 C 71.792969 135.980469 74.089844 136.515625 76.628906 136.714844 C 77.507812 136.796875 78.421875 136.839844 79.355469 136.839844 C 83.289062 136.839844 87.601562 136.136719 92.1875 134.773438 C 93.707031 134.3125 95.113281 133.851562 96.457031 133.378906 C 97.957031 132.832031 99.433594 132.253906 100.820312 131.71875 C 103.863281 130.492188 106.976562 129.160156 109.652344 128.015625 L 110.136719 127.808594 C 112.875 126.675781 115.707031 125.5 118.433594 124.535156 C 119.914062 124 121.351562 123.527344 122.703125 123.140625 C 124.320312 122.667969 125.640625 122.339844 126.847656 122.089844 C 129.40625 121.542969 131.925781 121.273438 134.328125 121.273438 C 136.878906 121.273438 139.289062 121.585938 141.515625 122.195312 C 144.292969 122.929688 146.726562 124.105469 148.710938 125.308594 " fill-opacity="1" fill-rule="nonzero"/></g><g clip-path="url(#0d3e0d560a)"><path fill="#5ce1e6" d="M 153.925781 123.699219 C 153.832031 123.648438 153.472656 123.394531 152.84375 123.039062 C 152.132812 122.597656 151.070312 122.011719 149.738281 121.371094 C 147.054688 120.089844 143.222656 118.726562 138.617188 118.371094 C 134.023438 117.972656 128.664062 118.621094 122.914062 120.28125 C 121.476562 120.699219 120.019531 121.152344 118.539062 121.652344 C 117.058594 122.167969 115.558594 122.722656 114.050781 123.300781 C 111.039062 124.464844 107.976562 125.726562 104.902344 126.996094 C 101.835938 128.222656 98.773438 129.460938 95.753906 130.488281 C 94.253906 131.011719 92.753906 131.484375 91.273438 131.894531 C 89.792969 132.3125 88.335938 132.679688 86.898438 132.953125 C 85.503906 133.238281 84.128906 133.457031 82.785156 133.59375 C 82.785156 133.59375 82.765625 133.59375 82.734375 133.601562 C 82.660156 133.613281 82.511719 133.625 82.3125 133.644531 C 82.1875 133.65625 82.074219 133.667969 81.945312 133.675781 C 81.746094 133.699219 81.503906 133.707031 81.242188 133.71875 C 81.054688 133.730469 80.855469 133.738281 80.636719 133.738281 C 80.445312 133.75 80.238281 133.75 80.027344 133.75 C 79.574219 133.761719 79.074219 133.761719 78.535156 133.738281 C 78.410156 133.738281 78.285156 133.730469 78.160156 133.730469 C 77.949219 133.71875 77.738281 133.707031 77.519531 133.699219 C 77.332031 133.6875 77.132812 133.675781 76.941406 133.667969 C 76.617188 133.636719 76.292969 133.613281 75.945312 133.570312 C 75.117188 133.5 74.234375 133.382812 73.300781 133.214844 C 72.664062 133.109375 72 132.984375 71.320312 132.828125 C 70.847656 132.722656 70.363281 132.605469 69.871094 132.46875 C 69.851562 132.46875 69.839844 132.46875 69.828125 132.460938 C 61.730469 130.308594 51.542969 124.789062 44.523438 111.058594 C 45.1875 112.078125 55.4375 127.445312 72.398438 129.132812 C 76.722656 129.34375 81.652344 128.671875 86.898438 127.164062 C 87.097656 127.097656 87.296875 127.046875 87.496094 126.984375 C 88.734375 126.617188 90.003906 126.21875 91.273438 125.777344 C 92.753906 125.261719 94.253906 124.707031 95.753906 124.140625 C 98.773438 122.964844 101.835938 121.707031 104.902344 120.4375 C 107.976562 119.210938 111.039062 117.960938 114.050781 116.945312 C 115.558594 116.410156 117.058594 115.9375 118.539062 115.527344 C 120.019531 115.109375 121.476562 114.742188 122.914062 114.457031 C 128.664062 113.28125 134.023438 113.355469 138.617188 114.574219 C 143.222656 115.746094 147.054688 118.023438 149.738281 120.050781 C 151.070312 121.054688 152.132812 122.011719 152.84375 122.660156 C 153.472656 123.238281 153.832031 123.605469 153.925781 123.699219 " fill-opacity="1" fill-rule="nonzero"/></g><g clip-path="url(#db439096d8)"><path fill="#0097b2" d="M 45.035156 105.074219 C 45.035156 105.074219 45.164062 105.246094 45.402344 105.574219 C 45.640625 105.90625 46 106.390625 46.464844 106.980469 C 47.382812 108.175781 48.753906 109.84375 50.550781 111.667969 C 51.441406 112.589844 52.476562 113.511719 53.566406 114.480469 C 54.6875 115.421875 55.90625 116.359375 57.199219 117.273438 C 58.503906 118.179688 59.910156 119.019531 61.359375 119.820312 C 62.839844 120.621094 64.324219 121.289062 65.945312 121.894531 C 67.464844 122.46875 69.105469 122.90625 70.714844 123.222656 C 72.335938 123.511719 73.949219 123.707031 75.527344 123.78125 C 77.105469 123.820312 78.644531 123.820312 80.101562 123.71875 C 81.558594 123.613281 82.9375 123.464844 84.210938 123.289062 C 86.753906 122.917969 88.878906 122.5 90.359375 122.191406 C 91.847656 121.886719 92.699219 121.710938 92.699219 121.710938 C 92.699219 121.710938 92.496094 121.792969 92.121094 121.945312 C 91.738281 122.09375 91.195312 122.335938 90.476562 122.59375 C 89.050781 123.128906 86.992188 123.847656 84.4375 124.46875 C 83.164062 124.785156 81.761719 125.074219 80.261719 125.277344 C 78.761719 125.488281 77.160156 125.621094 75.492188 125.628906 C 73.828125 125.605469 72.09375 125.527344 70.359375 125.21875 C 68.621094 124.898438 66.898438 124.472656 65.171875 123.84375 C 63.558594 123.21875 61.890625 122.441406 60.382812 121.59375 C 58.855469 120.738281 57.441406 119.757812 56.113281 118.765625 C 53.476562 116.742188 51.300781 114.527344 49.65625 112.464844 C 47.992188 110.417969 46.847656 108.546875 46.113281 107.207031 C 45.730469 106.542969 45.488281 106 45.308594 105.632812 C 45.128906 105.269531 45.035156 105.074219 45.035156 105.074219 " fill-opacity="1" fill-rule="nonzero"/></g><path fill="#5ce1e6" d="M 80.636719 133.738281 C 80.320312 133.75 79.964844 133.761719 79.585938 133.761719 L 79.480469 133.761719 C 79.1875 133.761719 78.871094 133.75 78.535156 133.738281 C 79.074219 133.761719 79.574219 133.761719 80.027344 133.75 C 80.238281 133.75 80.445312 133.75 80.636719 133.738281 " fill-opacity="1" fill-rule="nonzero"/><path fill="#5ce1e6" d="M 80.027344 133.75 C 79.878906 133.75 79.734375 133.761719 79.585938 133.761719 L 79.480469 133.761719 C 76.535156 133.824219 73.734375 133.519531 71.183594 132.847656 C 70.742188 132.734375 70.300781 132.605469 69.871094 132.46875 C 70.363281 132.605469 70.847656 132.722656 71.320312 132.828125 C 72 132.984375 72.664062 133.109375 73.300781 133.214844 C 74.234375 133.382812 75.117188 133.5 75.945312 133.570312 C 76.28125 133.613281 76.617188 133.636719 76.941406 133.667969 C 77.132812 133.675781 77.332031 133.6875 77.519531 133.699219 C 77.738281 133.707031 77.949219 133.71875 78.160156 133.730469 C 78.285156 133.730469 78.410156 133.738281 78.535156 133.738281 C 79.074219 133.761719 79.574219 133.761719 80.027344 133.75 " fill-opacity="1" fill-rule="nonzero"/><g clip-path="url(#ecfb1ec0cf)"><path fill="#000000" d="M 100.464844 74.183594 L 74.703125 96.960938 L 96.832031 81.054688 Z M 100.464844 74.183594 " fill-opacity="1" fill-rule="nonzero"/></g><g clip-path="url(#01403fb090)"><path fill="#000000" d="M 107.992188 94.359375 L 74.242188 120.695312 L 114.320312 93.238281 Z M 107.992188 94.359375 " fill-opacity="1" fill-rule="nonzero"/></g><path fill="#000000" d="M 96.980469 84.082031 L 81.847656 96.804688 L 97.558594 86.175781 Z M 96.980469 84.082031 " fill-opacity="1" fill-rule="nonzero"/><path fill="#000000" d="M 104.15625 93.871094 L 83.972656 108.050781 L 102.503906 92.484375 Z M 104.15625 93.871094 " fill-opacity="1" fill-rule="nonzero"/><g clip-path="url(#59b0869993)"><path fill="#000000" d="M 100.15625 91.253906 L 74.820312 108.363281 L 98.542969 88.636719 Z M 100.15625 91.253906 " fill-opacity="1" fill-rule="nonzero"/></g><path fill="#ffffff" d="M 123.117188 81.351562 C 123.117188 73.691406 116.90625 67.480469 109.246094 67.480469 C 101.585938 67.480469 95.378906 73.691406 95.378906 81.351562 C 95.378906 89.011719 101.585938 95.21875 109.246094 95.21875 C 116.90625 95.21875 123.117188 89.011719 123.117188 81.351562 " fill-opacity="1" fill-rule="nonzero"/><path fill="#000000" d="M 116.957031 92.457031 C 115.859375 92.988281 115.191406 93.117188 114.804688 93.117188 C 115.261719 92.546875 116.214844 91.324219 116.667969 90.550781 C 117.167969 90.242188 120.128906 88.355469 121.53125 85.621094 L 122.070312 85.640625 C 121.140625 88.394531 119.34375 90.792969 116.957031 92.457031 Z M 108.769531 94.863281 C 109.171875 94.730469 109.570312 94.554688 109.933594 94.3125 C 110.894531 94.195312 113.066406 93.898438 114.148438 93.578125 C 114.289062 93.644531 114.484375 93.695312 114.753906 93.699219 C 113.648438 94.191406 112.460938 94.542969 111.207031 94.726562 C 110.386719 94.847656 109.574219 94.890625 108.769531 94.863281 Z M 100.121094 91.3125 C 99.925781 90.777344 99.738281 90.023438 99.597656 89.371094 C 100.1875 89.371094 101.46875 89.3125 102.453125 88.898438 C 102.453125 88.898438 101.828125 85.027344 101.828125 83.800781 C 102.558594 83.394531 105.179688 81.933594 106.789062 80.96875 C 107.71875 81.617188 111.019531 82.851562 112.074219 83.039062 C 112.15625 83.917969 112.429688 86.910156 112.585938 88.796875 C 112.191406 89.203125 110.996094 90.265625 108.46875 91.34375 C 106.480469 91.09375 102.324219 88.402344 102.285156 88.375 L 102.453125 88.898438 L 102.085938 88.976562 C 102.242188 89.074219 105.960938 91.445312 108.125 91.871094 C 108.386719 92.410156 108.929688 93.5 109.246094 94.046875 C 108.378906 94.484375 107.359375 94.601562 106.695312 94.628906 C 104.21875 94.148438 101.945312 92.984375 100.121094 91.3125 Z M 96.574219 84.484375 C 96.792969 85.265625 97.5625 87.746094 98.953125 89.085938 C 99.011719 89.386719 99.121094 89.910156 99.261719 90.457031 C 97.652344 88.695312 96.492188 86.492188 95.992188 84.011719 C 96.203125 84.21875 96.40625 84.375 96.574219 84.484375 Z M 111.222656 67.976562 C 111.210938 68.027344 111.195312 68.082031 111.183594 68.132812 C 108.261719 67.902344 104.929688 68.898438 104.777344 68.945312 L 104.78125 68.957031 L 103.972656 68.902344 C 105.011719 68.460938 106.125 68.144531 107.289062 67.972656 C 108.628906 67.777344 109.949219 67.789062 111.222656 67.976562 Z M 122.28125 77.953125 C 121.691406 76.039062 120.816406 74.417969 120.105469 73.300781 C 121.128906 74.675781 121.902344 76.261719 122.347656 78 C 122.324219 77.984375 122.304688 77.96875 122.28125 77.953125 Z M 120.839844 80.164062 C 119.457031 79.640625 117.195312 79.09375 116.320312 78.890625 C 115.96875 78.234375 114.15625 74.84375 113.507812 73.894531 C 114.066406 72.929688 114.808594 71.457031 115.183594 70.710938 C 115.957031 70.972656 118.480469 72.011719 118.480469 72.011719 C 118.503906 72.039062 120.710938 74.675781 121.78125 78.285156 C 121.78125 78.285156 121.132812 79.746094 120.839844 80.164062 Z M 107.550781 74.363281 C 106.175781 73.179688 104.25 72.097656 103.449219 71.667969 C 103.746094 71.054688 104.945312 69.496094 104.945312 69.496094 C 104.980469 69.484375 108.828125 68.335938 111.75 68.777344 C 112.640625 69.105469 114.078125 69.710938 114.6875 70.40625 C 114.179688 71.429688 113.488281 72.769531 113.015625 73.597656 C 111.964844 73.53125 108.609375 73.867188 107.550781 74.363281 Z M 96.609375 83.792969 C 96.351562 83.582031 96.058594 83.265625 95.808594 82.824219 C 95.472656 79.734375 96.210938 76.753906 97.738281 74.277344 L 98.347656 75.011719 C 98.078125 76.042969 97.566406 78.539062 97.925781 81.25 C 97.558594 81.773438 96.882812 82.828125 96.609375 83.792969 Z M 106.546875 80.441406 C 104.9375 81.414062 102.21875 82.925781 101.523438 83.3125 C 100.832031 82.953125 99.253906 82.101562 98.535156 81.445312 C 98.082031 78.515625 98.746094 75.726562 98.96875 74.917969 C 99.78125 74.195312 101.683594 72.601562 103.109375 72.140625 C 103.859375 72.539062 105.882812 73.667969 107.242188 74.859375 C 107.09375 75.929688 106.617188 79.390625 106.546875 80.441406 Z M 116.589844 89.917969 C 115.914062 89.832031 114.332031 89.578125 113.171875 88.90625 C 113.003906 86.867188 112.683594 83.371094 112.632812 82.808594 C 113.386719 82.136719 115.410156 80.324219 116.125 79.4375 C 117.304688 79.710938 119.613281 80.292969 120.816406 80.765625 C 121.300781 82.125 121.324219 83.78125 121.285156 84.765625 C 120.25 87.359375 117.480469 89.332031 116.589844 89.917969 Z M 107.226562 67.523438 C 100.261719 68.542969 95.238281 74.5625 95.273438 81.410156 L 95.265625 81.410156 C 95.269531 81.425781 95.269531 81.441406 95.273438 81.460938 C 95.277344 82.089844 95.328125 82.730469 95.421875 83.375 C 96.539062 91 103.648438 96.296875 111.273438 95.179688 C 118.898438 94.0625 124.195312 86.953125 123.078125 79.328125 C 121.960938 71.699219 114.847656 66.40625 107.226562 67.523438 " fill-opacity="1" fill-rule="nonzero"/><g fill="#000000" fill-opacity="1"><g transform="translate(171.775365, 104.134497)"><g><path d="M 5.09375 -21.046875 L 5.09375 -10.984375 L 17.046875 -10.984375 L 17.046875 -10.03125 L 5.09375 -10.03125 L 5.09375 0 L 4.03125 0 L 4.03125 -22.015625 L 18.46875 -22.015625 L 18.46875 -21.046875 Z M 5.09375 -21.046875 "/></g></g></g><g fill="#000000" fill-opacity="1"><g transform="translate(191.590935, 104.134497)"><g><path d="M 17.515625 -6.453125 L 4.34375 -6.453125 L 1.390625 0 L 0.21875 0 L 10.40625 -22.015625 L 11.453125 -22.015625 L 21.640625 0 L 20.46875 0 Z M 17.109375 -7.359375 L 10.953125 -20.796875 L 4.75 -7.359375 Z M 17.109375 -7.359375 "/></g></g></g><g fill="#000000" fill-opacity="1"><g transform="translate(213.482421, 104.134497)"><g><path d="M 21.609375 -22.015625 L 21.609375 0 L 20.734375 0 L 5.09375 -20.0625 L 5.09375 0 L 4.03125 0 L 4.03125 -22.015625 L 4.90625 -22.015625 L 20.53125 -1.953125 L 20.53125 -22.015625 Z M 21.609375 -22.015625 "/></g></g></g><g fill="#000000" fill-opacity="1"><g transform="translate(239.116847, 104.134497)"><g><path d="M 8.203125 -21.046875 L 0.125 -21.046875 L 0.125 -22.015625 L 17.328125 -22.015625 L 17.328125 -21.046875 L 9.25 -21.046875 L 9.25 0 L 8.203125 0 Z M 8.203125 -21.046875 "/></g></g></g><g fill="#000000" fill-opacity="1"><g transform="translate(256.573421, 104.134497)"><g><path d="M 17.515625 -6.453125 L 4.34375 -6.453125 L 1.390625 0 L 0.21875 0 L 10.40625 -22.015625 L 11.453125 -22.015625 L 21.640625 0 L 20.46875 0 Z M 17.109375 -7.359375 L 10.953125 -20.796875 L 4.75 -7.359375 Z M 17.109375 -7.359375 "/></g></g></g><g fill="#000000" fill-opacity="1"><g transform="translate(278.464907, 104.134497)"><g><path d="M 9.59375 0.125 C 8 0.125 6.484375 -0.15625 5.046875 -0.71875 C 3.609375 -1.289062 2.503906 -2.023438 1.734375 -2.921875 L 2.296875 -3.6875 C 3.023438 -2.84375 4.046875 -2.148438 5.359375 -1.609375 C 6.671875 -1.078125 8.070312 -0.8125 9.5625 -0.8125 C 11.757812 -0.8125 13.421875 -1.242188 14.546875 -2.109375 C 15.671875 -2.984375 16.234375 -4.101562 16.234375 -5.46875 C 16.234375 -6.519531 15.9375 -7.363281 15.34375 -8 C 14.757812 -8.644531 14.035156 -9.128906 13.171875 -9.453125 C 12.316406 -9.773438 11.144531 -10.113281 9.65625 -10.46875 C 8.0625 -10.875 6.78125 -11.265625 5.8125 -11.640625 C 4.851562 -12.015625 4.035156 -12.585938 3.359375 -13.359375 C 2.691406 -14.140625 2.359375 -15.179688 2.359375 -16.484375 C 2.359375 -17.503906 2.628906 -18.445312 3.171875 -19.3125 C 3.722656 -20.175781 4.554688 -20.863281 5.671875 -21.375 C 6.796875 -21.882812 8.195312 -22.140625 9.875 -22.140625 C 11.070312 -22.140625 12.25 -21.960938 13.40625 -21.609375 C 14.570312 -21.253906 15.566406 -20.757812 16.390625 -20.125 L 15.921875 -19.28125 C 15.054688 -19.90625 14.09375 -20.378906 13.03125 -20.703125 C 11.976562 -21.035156 10.9375 -21.203125 9.90625 -21.203125 C 7.769531 -21.203125 6.148438 -20.753906 5.046875 -19.859375 C 3.941406 -18.972656 3.390625 -17.847656 3.390625 -16.484375 C 3.390625 -15.410156 3.6875 -14.550781 4.28125 -13.90625 C 4.882812 -13.269531 5.617188 -12.785156 6.484375 -12.453125 C 7.359375 -12.117188 8.53125 -11.773438 10 -11.421875 C 11.59375 -11.015625 12.867188 -10.628906 13.828125 -10.265625 C 14.796875 -9.898438 15.609375 -9.332031 16.265625 -8.5625 C 16.929688 -7.800781 17.265625 -6.78125 17.265625 -5.5 C 17.265625 -4.476562 16.984375 -3.535156 16.421875 -2.671875 C 15.867188 -1.816406 15.015625 -1.132812 13.859375 -0.625 C 12.710938 -0.125 11.289062 0.125 9.59375 0.125 Z M 9.59375 0.125 "/></g></g></g><g fill="#000000" fill-opacity="1"><g transform="translate(297.462686, 104.134497)"><g><path d="M 18.90625 -0.96875 L 18.90625 0 L 4.03125 0 L 4.03125 -22.015625 L 18.46875 -22.015625 L 18.46875 -21.046875 L 5.09375 -21.046875 L 5.09375 -11.671875 L 17.046875 -11.671875 L 17.046875 -10.6875 L 5.09375 -10.6875 L 5.09375 -0.96875 Z M 18.90625 -0.96875 "/></g></g></g><g fill="#000000" fill-opacity="1"><g transform="translate(318.473474, 104.134497)"><g><path d="M 17.515625 -6.453125 L 4.34375 -6.453125 L 1.390625 0 L 0.21875 0 L 10.40625 -22.015625 L 11.453125 -22.015625 L 21.640625 0 L 20.46875 0 Z M 17.109375 -7.359375 L 10.953125 -20.796875 L 4.75 -7.359375 Z M 17.109375 -7.359375 "/></g></g></g></svg>